<svg width="20" height="21" viewBox="0 0 20 21" fill="none" xmlns="http://www.w3.org/2000/svg">
<path fill-rule="evenodd" clip-rule="evenodd" d="M13.5991 13.6344L15.5883 18.7615L11.0406 15.6357C10.6642 15.377 10.2175 15.2733 9.78469 15.3245C9.78592 15.3044 9.78655 15.2842 9.78656 15.2639C9.78766 12.9594 9.79856 4.4407 9.90295 1.52323L10 1.27308L12.2719 7.12885C12.5456 7.83448 13.221 8.32113 13.9978 8.32113H18.7465L14.2845 11.388C13.5567 11.8882 13.2854 12.8258 13.5991 13.6344ZM9.69252 0.0572209C10.0974 -0.0996213 10.6043 0.0659643 10.7936 0.553978L13.2041 6.76715C13.334 7.10174 13.6483 7.32113 13.9978 7.32113H19.1437C19.9894 7.32113 20.3215 8.45201 19.6178 8.93567L14.8509 12.2121C14.5146 12.4433 14.3813 12.8858 14.5314 13.2727L16.6708 18.7871C16.9826 19.5906 16.1015 20.3277 15.403 19.8476L10.4741 16.4598C10.187 16.2624 9.81297 16.2624 9.52586 16.4598L4.9543 19.602L4.57665 19.904C3.90182 20.3712 3.05571 19.6888 3.29007 18.9115C3.30002 18.8703 3.31299 18.8288 3.32918 18.7871L4.13635 16.7066L5.44443 13.3103C5.59389 12.9223 5.46118 12.4786 5.12635 12.2468L0.380516 8.96096C0.113913 8.77637 -0.0033512 8.4978 7.2773e-05 8.22349C-0.00561257 7.77026 0.323375 7.32113 0.856344 7.32113H6.00222C6.17224 7.32113 6.33393 7.26921 6.47011 7.17738C6.59993 7.08115 6.70395 6.94696 6.76584 6.78626L9.16572 0.555394C9.29593 0.217325 9.51261 0.0661428 9.69252 0.0572209Z" fill="#F5AA01"/>
</svg>
