<svg width="20" height="20" viewBox="0 0 20 20" fill="none" xmlns="http://www.w3.org/2000/svg">
<path d="M10.7574 16.0477C10.2996 15.7331 9.70036 15.7331 9.24264 16.0477L4.31373 19.4356C4.17172 19.5332 4.02319 19.514 3.90506 19.4152C3.78475 19.3146 3.7243 19.151 3.79532 18.9679L5.93472 13.4536C6.16664 12.8558 5.96433 12.1658 5.4323 11.8001L0.665424 8.52362C0.516486 8.42125 0.469212 8.25402 0.517993 8.08791C0.566447 7.92292 0.689557 7.82113 0.856344 7.82113H6.00222C6.56535 7.82113 7.06021 7.46811 7.262 6.948L9.67251 0.734829C9.79399 0.421724 10.206 0.421724 10.3275 0.734829L12.738 6.948C12.9398 7.46811 13.4346 7.82113 13.9978 7.82113H19.1437C19.3104 7.82113 19.4336 7.92291 19.482 8.08791C19.5308 8.25402 19.4835 8.42125 19.3346 8.52362L14.5677 11.8001C14.0357 12.1658 13.8334 12.8558 14.0653 13.4536L16.2047 18.9679C16.2757 19.151 16.2153 19.3146 16.0949 19.4152C15.9768 19.514 15.8283 19.5332 15.6863 19.4356L10.7574 16.0477Z" stroke="#F5AA01"/>
</svg>
