<svg width="20" height="21" viewBox="0 0 20 21" fill="none" xmlns="http://www.w3.org/2000/svg"><path fill-rule="evenodd" clip-rule="evenodd" d="M13.6 13.634l1.988 5.128-4.547-3.126a1.834 1.834 0 00-1.256-.311 1 1 0 00.002-.061c0-2.305.012-10.823.116-13.74l.097-.25 2.272 5.855a1.856 1.856 0 001.726 1.192h4.749l-4.463 3.067a1.897 1.897 0 00-.685 2.246zM9.692.057a.845.845 0 011.1.497l2.411 6.213c.13.335.444.554.794.554h5.146c.845 0 1.178 1.131.474 1.615l-4.767 3.276a.897.897 0 00-.32 1.06l2.14 5.515c.312.804-.57 1.54-1.268 1.06l-4.929-3.387a.833.833 0 00-.948 0l-4.572 3.142-.377.302c-.675.467-1.521-.215-1.287-.992a.978.978 0 01.04-.125l.806-2.08 1.308-3.397a.903.903 0 00-.318-1.063L.381 8.96A.868.868 0 010 8.223c-.007-.453.322-.902.855-.902h5.146c.17 0 .332-.052.468-.144a.878.878 0 00.296-.39l2.4-6.232c.13-.338.347-.489.527-.498z" fill="#F5AA01"/></svg>