<svg width="20" height="20" viewBox="0 0 20 20" fill="none" xmlns="http://www.w3.org/2000/svg"><path d="M10.757 16.048a1.334 1.334 0 00-1.514 0l-4.93 3.388a.32.32 0 01-.408-.02.382.382 0 01-.11-.448l2.14-5.514a1.397 1.397 0 00-.503-1.654L.665 8.524a.378.378 0 01-.147-.436c.048-.165.172-.267.338-.267h5.146c.563 0 1.058-.353 1.26-.873L9.672.735a.346.346 0 01.655 0l2.411 6.213c.202.52.697.873 1.26.873h5.146c.166 0 .29.102.338.267a.378.378 0 01-.147.436L14.568 11.8a1.397 1.397 0 00-.503 1.654l2.14 5.514a.382.382 0 01-.11.447.32.32 0 01-.409.02l-4.929-3.387z" stroke="#F5AA01"/></svg>