<svg width="41" height="26" viewBox="0 0 41 26" fill="none" xmlns="http://www.w3.org/2000/svg">
<path d="M5.98563 13.936C2.71617 13.936 0 16.484 0 19.864C0 23.244 2.66587 26 5.93533 26C9.20479 26 11.8707 23.244 11.8707 19.864C11.8707 19.604 11.8707 19.344 11.8204 19.084L13.3293 18.408L15.8946 21.06C16.0455 21.216 16.1964 21.268 16.3976 21.268C16.5485 21.268 16.6994 21.216 16.8 21.164L23.2383 16.692C23.2383 16.692 23.2383 16.692 23.2886 16.64C25.2 14.924 27.9162 14.56 29.8779 14.56C30.1797 14.56 30.4815 14.612 30.7329 14.612C28.3689 17.316 24.9485 17.004 24.9485 17.004L22.0814 19.24H29.3246C29.2743 19.5 29.2743 19.708 29.2743 19.968C29.2743 23.348 31.7892 26 35.0587 26C38.3282 26 40.994 23.244 40.994 19.864C40.994 18.928 40.7425 17.94 40.3401 17.108C40.994 17.42 41.1952 16.848 40.7928 16.328C40.7928 16.328 38.9318 12.844 33.8012 13.572L35.3605 12.116C35.4611 12.012 35.5114 11.856 35.5617 11.7C35.6623 11.284 35.6623 10.92 35.7126 10.556H34.4551C33.3988 8.684 35.3102 7.384 35.3102 7.384C35.4611 7.592 35.5617 7.748 35.6623 7.956C35.3102 5.512 34.1533 3.744 33.097 2.6C31.4371 0.78 29.5761 0.104 29.5258 0.0519997C29.4755 -2.98321e-07 29.3246 0 29.2743 0C29.0228 0 28.8719 0.104 28.721 0.26C28.5701 0.468 28.5198 0.832 28.6707 1.092C29.4252 2.392 29.7773 3.328 29.9282 4.004L28.8719 3.796C28.5198 3.744 28.1677 4.004 28.1174 4.368C28.0671 4.732 28.3186 5.096 28.6707 5.148L29.9785 5.356C29.9785 5.46 29.9785 5.46 29.9282 5.512C29.6264 6.084 28.8719 6.136 28.5701 6.136C28.5198 6.136 28.5198 6.136 28.4695 6.136C25.7533 5.304 23.7916 4.992 23.7413 4.992C23.3892 4.992 22.9868 4.94 22.685 4.94C21.0252 4.94 19.5162 5.616 18.4096 6.864C17.9569 7.384 17.6551 7.904 17.4539 8.268C14.5868 7.904 12.9773 6.188 12.9773 6.188C12.8264 6.032 12.6755 5.98 12.4743 5.98L4.72815 6.032C4.47665 6.032 4.22515 6.188 4.17485 6.448L3.72216 7.384C3.52096 7.696 3.67186 8.112 4.02395 8.32L4.72815 8.684H3.92336C3.62156 8.684 3.37006 8.944 3.37006 9.256C3.37006 9.568 3.62156 9.828 3.92336 9.828H4.27545L2.01198 12.636C1.81078 12.896 1.86108 13.26 2.06228 13.468C2.16288 13.572 2.31377 13.624 2.41437 13.624C2.61557 13.624 2.76647 13.572 2.86707 13.416L5.73413 9.88H6.33773L7.59521 12.844L12.424 14.924V15.912L10.8647 16.588C9.80839 14.976 7.99761 13.936 5.98563 13.936ZM12.424 13.312L8.6515 11.7L8.04791 10.296L12.424 12.428V13.312ZM35.2096 23.296C33.4994 23.296 32.091 21.84 32.091 20.02C32.091 19.396 32.2922 18.772 32.594 18.252L33.8012 20.8L36.3162 19.5L35.0084 16.744C35.0587 16.744 35.1593 16.744 35.2096 16.744C36.9701 16.744 38.3785 18.2 38.3785 20.02C38.3785 21.84 36.9701 23.296 35.2096 23.296ZM5.98563 23.296C4.22515 23.296 2.86707 21.84 2.86707 20.072C2.86707 18.252 4.27545 16.796 6.03593 16.796C6.89102 16.796 7.64551 17.16 8.24911 17.732L5.63353 18.876L6.74012 21.528L9.1042 20.488C8.903 22.048 7.59521 23.296 5.98563 23.296Z" fill="#616161"/>
</svg>
