<svg width="42" height="25" viewBox="0 0 42 25" fill="none" xmlns="http://www.w3.org/2000/svg">
<path d="M18.3468 17.7105C17.3445 17.7105 16.5427 18.0698 15.8411 18.7372C15.1897 19.4045 14.8389 20.3285 14.8389 21.3552C14.8389 22.3819 15.1395 23.2546 15.8411 23.9733C16.5427 24.6407 17.3445 25 18.3468 25C19.349 25 20.1508 24.692 20.8524 23.9733C21.5039 23.306 21.8547 22.3819 21.8547 21.3552C21.8547 20.3285 21.554 19.4559 20.8524 18.7372C20.1508 18.0698 19.349 17.7105 18.3468 17.7105ZM16.9937 22.7413C16.6429 22.3819 16.4425 21.9199 16.4425 21.4066C16.4425 20.8932 16.6429 20.4312 16.9937 20.0719C17.3445 19.7125 17.7955 19.5072 18.3468 19.5072C18.8479 19.5072 19.349 19.7125 19.6998 20.0719C20.0506 20.4312 20.2511 20.8932 20.2511 21.4066C20.2511 21.9199 20.0506 22.3819 19.6998 22.7413C19.349 23.1006 18.898 23.306 18.3468 23.306C17.8456 23.306 17.3445 23.1006 16.9937 22.7413Z" fill="black"/>
<path d="M0.907403 3.23409C0.255934 4.10678 -0.0447437 5.0308 0.00536923 6.05749V17.9158C0.00536923 18.8398 0.35616 19.6612 1.00763 20.3799C1.6591 21.0472 2.41079 21.4066 3.26271 21.4066H13.9368C13.9368 20.1232 14.3377 19.0452 15.1896 18.1725C16.0415 17.2998 17.0939 16.8891 18.3467 16.8891C19.5995 16.8891 20.6519 17.2998 21.5038 18.1725C22.3557 19.0452 22.7566 20.1232 22.7566 21.4066H42V19.6612H36.8384C37.3395 19.6612 37.5901 19.0965 37.5901 17.9158V6.62218C37.5901 5.80082 37.4898 5.0308 37.1892 4.36345C36.8885 3.6961 36.5878 3.18275 36.237 2.82341C35.8862 2.46407 35.4853 2.15606 35.0343 1.84805C34.5833 1.54004 34.2325 1.38604 34.0822 1.3347L33.581 1.1807C32.9296 1.02669 30.8248 0.770021 27.3169 0.462013C23.809 0.154005 20.8523 0 18.3968 0C15.8411 0 12.8844 0.154005 9.57694 0.462013C6.3196 0.770021 4.31508 1.07803 3.6135 1.28337C2.4609 1.69405 1.55887 2.3614 0.907403 3.23409ZM25.4126 10.1643V6.10883C25.4126 5.59548 25.6131 5.39014 26.014 5.39014H31.7269C31.8772 5.39014 32.0275 5.44148 32.1779 5.59548C32.2781 5.69815 32.3783 5.90349 32.3783 6.05749V10.2669C32.3783 10.6263 32.1278 10.7803 31.6767 10.7803H25.9138C25.5128 10.7803 25.3124 10.5749 25.3124 10.1643H25.4126ZM4.31508 6.05749C4.31508 5.54415 4.56565 5.33881 5.01666 5.33881H17.7453C18.1462 5.33881 18.3467 5.59548 18.3467 6.05749V10.2669C18.3467 10.6263 18.1462 10.7803 17.7453 10.7803H5.01666C4.51553 10.7803 4.31508 10.6263 4.31508 10.2669V6.05749Z" fill="black"/>
</svg>
