<svg width="25" height="25" viewBox="0 0 25 25" fill="none" xmlns="http://www.w3.org/2000/svg">
<path d="M12.5 25C19.4036 25 25 19.4036 25 12.5C25 5.59644 19.4036 0 12.5 0C5.59644 0 0 5.59644 0 12.5C0 19.4036 5.59644 25 12.5 25Z" fill="#DC4E41"/>
<path d="M4.35198 13.0603C4.30764 15.211 5.78897 17.2634 7.8267 17.9328C9.74611 18.5776 12.106 18.0952 13.3833 16.4514C14.3158 15.2996 14.5277 13.7642 14.4268 12.3296C12.783 12.3149 11.1392 12.3198 9.49789 12.3223C9.49521 12.9078 9.49789 13.4912 9.50034 14.0768C10.4846 14.104 11.469 14.0915 12.4532 14.1113C12.2048 14.9627 11.6388 15.7551 10.7798 16.0626C9.12131 16.7935 7.00515 15.8387 6.4833 14.0988C5.85337 12.4328 6.8846 10.4222 8.5872 9.9376C9.64294 9.56615 10.7305 9.98439 11.6339 10.5332C12.0916 10.1049 12.5198 9.64726 12.9405 9.18468C11.9142 8.32591 10.5953 7.79938 9.23941 7.91502C6.57911 7.94666 4.25104 10.4026 4.35198 13.0603Z" fill="#DC4E41"/>
<path d="M17.6259 10.8447C17.621 11.3345 17.6158 11.8267 17.6134 12.3163C17.1212 12.3212 16.6316 12.3236 16.1418 12.3261C16.1418 12.8158 16.1418 13.3029 16.1418 13.7927C16.6316 13.7951 17.1238 13.7976 17.6134 13.8027C17.6183 14.2925 17.6183 14.782 17.6232 15.2743C18.1105 15.2743 18.6003 15.2718 19.0898 15.2743C19.0925 14.782 19.0947 14.2925 19.0998 13.8003C19.5894 13.7978 20.0816 13.7954 20.5714 13.7929C20.5714 13.3031 20.5714 12.8161 20.5714 12.3263C20.0818 12.3238 19.5896 12.3214 19.0998 12.3165C19.0972 11.8267 19.0925 11.3345 19.0898 10.8449C18.6003 10.8447 18.1129 10.8447 17.6259 10.8447Z" fill="#DC4E41"/>
<path d="M4.35198 13.0595C4.25104 10.4019 6.57889 7.94591 9.23919 7.91405C10.5951 7.7984 11.9142 8.32494 12.9403 9.1837C12.5194 9.64651 12.0911 10.104 11.6337 10.5322C10.7303 9.98342 9.64272 9.56517 8.58698 9.93662C6.88416 10.4215 5.85293 12.432 6.48307 14.0979C7.00493 15.8377 9.12109 16.7925 10.7796 16.0616C11.6383 15.7541 12.2045 14.9618 12.453 14.1103C11.4688 14.0907 10.4843 14.103 9.50011 14.0758C9.49766 13.4902 9.49521 12.9069 9.49766 12.3213C11.139 12.3188 12.7828 12.3139 14.4265 12.3286C14.5275 13.7634 14.3158 15.2989 13.3831 16.4504C12.1058 18.0942 9.74611 18.5766 7.82648 17.9318C5.7892 17.2626 4.30764 15.2102 4.35198 13.0595Z" fill="white"/>
<path d="M17.6259 10.8447C18.1132 10.8447 18.6003 10.8447 19.0898 10.8447C19.0925 11.3345 19.0972 11.8267 19.0998 12.3163C19.5894 12.3212 20.0816 12.3236 20.5714 12.3261C20.5714 12.8158 20.5714 13.3029 20.5714 13.7927C20.0818 13.7951 19.5896 13.7976 19.0998 13.8C19.0949 14.2923 19.0925 14.7818 19.0898 15.274C18.6003 15.2716 18.1103 15.274 17.6232 15.274C17.6185 14.7818 17.6185 14.2923 17.6134 13.8025C17.1238 13.7974 16.6316 13.7951 16.1418 13.7925C16.1418 13.3027 16.1418 12.8156 16.1418 12.3258C16.6316 12.3234 17.1214 12.3209 17.6134 12.316C17.6158 11.8267 17.6207 11.3345 17.6259 10.8447Z" fill="white"/>
</svg>
