<svg width="23" height="20" viewBox="0 0 23 20" fill="none" xmlns="http://www.w3.org/2000/svg">
<path d="M20.3807 2.59231C19.8676 2.08781 19.2583 1.68761 18.5878 1.41456C17.9172 1.14151 17.1985 1.00098 16.4727 1.00098C15.7468 1.00098 15.0281 1.14151 14.3576 1.41456C13.687 1.68761 13.0778 2.08781 12.5646 2.59231L11.4997 3.63883L10.4348 2.59231C9.39834 1.57373 7.99258 1.0015 6.52679 1.0015C5.06099 1.0015 3.65523 1.57373 2.61876 2.59231C1.58229 3.61088 1 4.99236 1 6.43284C1 7.87332 1.58229 9.25481 2.61876 10.2734L3.68367 11.3199L11.4997 19.001L19.3158 11.3199L20.3807 10.2734C20.8941 9.76912 21.3013 9.1704 21.5791 8.51143C21.857 7.85246 22 7.14614 22 6.43284C22 5.71954 21.857 5.01323 21.5791 4.35426C21.3013 3.69529 20.8941 3.09657 20.3807 2.59231V2.59231Z" stroke="#616161" stroke-width="2" stroke-linecap="round" stroke-linejoin="round"/>
</svg>
