<svg width="25" height="25" viewBox="0 0 25 25" fill="none" xmlns="http://www.w3.org/2000/svg">
<path d="M12.5 25C19.4036 25 25 19.4036 25 12.5C25 5.59644 19.4036 0 12.5 0C5.59644 0 0 5.59644 0 12.5C0 19.4036 5.59644 25 12.5 25Z" fill="#55ACEE"/>
<path d="M20.1567 8.9834C19.621 9.22093 19.0448 9.38158 18.4405 9.45333C19.0575 9.08367 19.531 8.49875 19.7545 7.80064C19.1771 8.14312 18.5374 8.39157 17.8571 8.52549C17.3121 7.94503 16.5356 7.58228 15.6757 7.58228C14.0259 7.58228 12.6878 8.92034 12.6878 10.5701C12.6878 10.8043 12.7143 11.0323 12.7656 11.2511C10.2824 11.1265 8.08071 9.93708 6.60695 8.12886C6.34981 8.57006 6.2023 9.08367 6.2023 9.63115C6.2023 10.6675 6.73017 11.5824 7.53145 12.1181C7.0419 12.1027 6.58088 11.9684 6.17824 11.744C6.17801 11.7567 6.17801 11.7694 6.17801 11.7818C6.17801 13.2295 7.20835 14.437 8.57494 14.7113C8.32448 14.7799 8.05999 14.8163 7.78792 14.8163C7.59495 14.8163 7.408 14.7978 7.22573 14.763C7.60587 15.9498 8.70908 16.8137 10.0168 16.838C8.99407 17.6395 7.70592 18.117 6.30569 18.117C6.06504 18.117 5.82662 18.1029 5.59332 18.0751C6.91489 18.9231 8.4858 19.4176 10.173 19.4176C15.6688 19.4176 18.6742 14.8648 18.6742 10.9162C18.6742 10.7867 18.6713 10.6577 18.6655 10.5298C19.2498 10.1087 19.7563 9.58257 20.1567 8.9834Z" fill="#F1F2F2"/>
</svg>
