<svg width="22" height="26" viewBox="0 0 22 26" fill="none" xmlns="http://www.w3.org/2000/svg"><path d="M13.314 6.487c-.193.239-.3.56-.3.893 0 .334.107.654.3.892l1.684 2.04a.967.967 0 00.736.365c.276 0 .54-.131.737-.365l3.967-4.806c.53 1.416.69 2.995.46 4.525-.23 1.53-.84 2.938-1.747 4.038-.908 1.1-2.07 1.838-3.333 2.117-1.263.279-2.566.084-3.735-.557L4.81 24.44c-.419.508-.987.793-1.579.793s-1.16-.285-1.578-.792C1.235 23.932 1 23.244 1 22.527c0-.717.235-1.405.654-1.912l7.272-8.81a9.137 9.137 0 01-.46-4.526c.23-1.53.84-2.939 1.747-4.038.908-1.1 2.07-1.838 3.333-2.117 1.263-.279 2.566-.085 3.735.556l-3.956 4.795-.011.012z" stroke="#616161" stroke-linecap="round" stroke-linejoin="round"/></svg>