<svg width="26" height="26" viewBox="0 0 26 26" fill="none" xmlns="http://www.w3.org/2000/svg">
<circle cx="13.7508" cy="13.7498" r="5.45" stroke="#616161"/>
<circle cx="13.7504" cy="13.7504" r="2.35" stroke="#616161"/>
<path d="M13.7992 4.7002C8.77343 4.7002 4.69922 8.77441 4.69922 13.8002H4.79922C4.79922 8.82963 8.82866 4.8002 13.7992 4.8002V4.7002Z" stroke="#616161"/>
<path d="M13.8 1.02624C13.5356 1.00884 13.2688 1 13 1C6.37259 1 1 6.37259 1 13C1 13.2688 1.00884 13.5356 1.02624 13.8H1.12647C1.10892 13.5356 1.1 13.2688 1.1 13C1.1 6.42781 6.42781 1.1 13 1.1C13.2688 1.1 13.5356 1.10892 13.8 1.12647V1.02624Z" stroke="#616161"/>
<path d="M13.7508 1.0498V4.74981M1.05078 13.7498H4.75078" stroke="#616161"/>
<path d="M2.5 13.7999C2.52694 19.9901 7.55337 24.9999 13.7499 24.9999C19.9631 24.9999 24.9999 19.9631 24.9999 13.7499C24.9999 7.55336 19.9901 2.52694 13.7999 2.5V2.6C19.9349 2.62694 24.8999 7.60859 24.8999 13.7499C24.8999 19.9079 19.9079 24.8999 13.7499 24.8999C7.60859 24.8999 2.62694 19.9349 2.6 13.7999H2.5Z" stroke="#616161"/>
</svg>
