<svg width="25" height="17" viewBox="0 0 25 17" fill="none" xmlns="http://www.w3.org/2000/svg"><path d="M24.219 9.766h-1.563v-.782h-1.562v-.586L19.27 7.031h-1.302V2.734c0-.646-.526-1.171-1.172-1.171h-.39v-.391C16.406.526 15.88 0 15.233 0H4.297a1.17 1.17 0 00-1.1.781H0v2.344h3.125v1.634a1.17 1.17 0 00-.781 1.1v2.735H0v6.25h2.344v.39c0 .646.526 1.172 1.172 1.172h11.718a1.17 1.17 0 001.1-.781h.463a1.17 1.17 0 001.1-.781h1.374l1.823-1.367v-.586h1.562v-.782h1.563V9.766zm-8.594-8.594v.39h-1.563v3.125H5.47V.781h9.765a.39.39 0 01.391.39zM4.297.782h.39v3.905h-.78V1.172a.39.39 0 01.39-.39zM.78 2.343v-.781h2.344v.78H.781zm1.563 7.031v.998a1.547 1.547 0 00-.781-.217c-.286 0-.55.083-.782.217v-.998h1.563zm0 2.344a.782.782 0 11-1.564-.002.782.782 0 011.564.002zM.78 14.063v-.999c.231.134.496.217.781.217.286 0 .55-.083.782-.217v.998H.78zm14.844 1.171a.39.39 0 01-.39.391H5.468V6.641h-.782v8.984h-1.17a.391.391 0 01-.391-.39V5.858a.39.39 0 01.39-.39h9.766v9.375h.781V5.469h1.172a.39.39 0 01.391.39v9.375zm1.563-.78c0 .215-.176.39-.391.39h-.39V5.859c0-.646-.527-1.171-1.173-1.171h-.39V2.344h1.953a.39.39 0 01.39.39v11.72zm3.125-1.368l-1.302.976h-1.042v-6.25h1.041l1.302.977v4.297zm1.562-.977h-.781V9.766h.781v2.343zm1.563-.78h-.782v-.782h.782v.781z" fill="#616161"/></svg>