<svg width="26" height="26" viewBox="0 0 26 26" fill="none" xmlns="http://www.w3.org/2000/svg"><circle cx="13.751" cy="13.75" r="5.45" stroke="#616161"/><circle cx="13.75" cy="13.75" r="2.35" stroke="#616161"/><path d="M13.8 4.7a9.1 9.1 0 00-9.1 9.1h.1a9 9 0 019-9v-.1z" stroke="#616161"/><path d="M13.8 1.026A12.182 12.182 0 0013 1C6.373 1 1 6.373 1 13c0 .269.009.536.026.8h.1A12.079 12.079 0 011.1 13C1.1 6.428 6.428 1.1 13 1.1c.269 0 .536.009.8.026v-.1zm-.05.024v3.7m-12.7 9h3.7m-2.25.05C2.527 19.99 7.553 25 13.75 25 19.963 25 25 19.963 25 13.75 25 7.553 19.99 2.527 13.8 2.5v.1c6.135.027 11.1 5.009 11.1 11.15 0 6.158-4.992 11.15-11.15 11.15-6.141 0-11.123-4.965-11.15-11.1h-.1z" stroke="#616161"/></svg>