<svg width="22" height="24" viewBox="0 0 22 24" fill="none" xmlns="http://www.w3.org/2000/svg"><mask id="path-1-inside-1" fill="#fff"><path d="M6.468 23.86a9.06 9.06 0 001.579.14h.51c1.95-.093 3.714-.928 5.06-2.321h.511c2.878-.186 5.385-1.857 6.638-4.55 1.254-2.738.975-5.941-.835-8.309L13.385 0 9.857 5.014 7.861 2.32l-6.36 8.96c-1.624 2.32-1.95 5.2-.881 7.845 1.022 2.506 3.203 4.27 5.85 4.735zm6.964-22.282l5.802 7.8a7.284 7.284 0 01.743 7.38c-1.068 2.229-3.064 3.714-5.478 3.992.047-.046.093-.139.14-.185.046-.093.092-.14.139-.232.093-.093.14-.232.185-.325.047-.093.093-.186.14-.232.046-.14.14-.232.186-.372.046-.093.092-.185.092-.232l.14-.418c.046-.093.046-.139.092-.232.047-.185.14-.418.186-.603v-.093a2.31 2.31 0 00.093-.557c0-.093 0-.186.046-.232 0-.14.047-.279.047-.418v-.929c0-.139 0-.232-.047-.37 0-.094 0-.187-.046-.28 0-.139-.046-.231-.046-.37 0-.094-.047-.186-.047-.28-.046-.139-.046-.231-.093-.37-.046-.093-.046-.186-.092-.28-.047-.139-.093-.231-.14-.37-.046-.093-.046-.186-.093-.28a1.39 1.39 0 00-.185-.37c-.047-.093-.093-.186-.14-.233a1.01 1.01 0 00-.232-.37c-.046-.047-.093-.14-.139-.187-.14-.185-.232-.371-.371-.557l-3.946-5.292 3.064-4.503zM2.244 11.838l5.617-7.939 1.625 2.182 4.178 5.57c2.367 3.158 1.532 7.01-.51 9.239-1.208 1.3-2.786 2.042-4.597 2.182-.65.046-1.3 0-1.903-.093-2.367-.418-4.224-1.95-5.153-4.178-.975-2.368-.696-4.92.743-6.963z"/></mask><path d="M6.468 23.86l.18-.983-.007-.001-.173.985zm2.09.14v1h.023l.024-.001L8.557 24zm5.06-2.321v-1h-.425l-.295.305.72.695zm.51 0v1h.032l.032-.002-.064-.998zm6.638-4.55l.907.423.003-.006-.91-.416zm-.835-8.309l-.803.596.004.006.004.006.795-.608zM13.385 0l.803-.596-.824-1.111-.797 1.132.818.575zM9.857 5.014l-.803.595.824 1.112.797-1.132-.818-.575zM7.861 2.32l.803-.595-.82-1.108-.798 1.124.815.58zm-6.36 8.96l-.815-.58-.004.006.82.573zM.62 19.125l-.927.374.001.003.926-.377zM13.432 1.578l.802-.597-.839-1.127-.79 1.162.827.562zm5.802 7.8l.804-.595-.001-.003-.803.597zm.743 7.38l.902.432.003-.006.003-.007-.908-.419zM14.5 20.75l-.707-.707-2.03 2.03 2.852-.33-.115-.992zm.14-.185l.707.707.114-.115.073-.145-.894-.447zm.139-.232l-.707-.707-.115.114-.073.146.895.447zm.325-.557l.707.707.167-.167.075-.224-.95-.316zm.186-.372l-.895-.447-.032.064-.022.067.949.316zm.092-.232l-.948-.316-.052.154v.162h1zm.14-.418l-.895-.447-.032.064-.022.067.949.316zm.092-.232l.895.448.049-.099.027-.106-.97-.243zm.186-.603l.97.242.03-.12v-.122h-1zm0-.093l-.97-.243-.03.12v.123h1zm.14-.79l.706.708.293-.293v-.414h-1zm0-1.717h-1v.162l.05.154.95-.316zm-.047-.278h-1v.236l.106.21.894-.446zm-.093-.65h1v-.163l-.051-.153-.949.316zm-.093-.372l.949-.316-.023-.067-.031-.064-.895.447zm-.092-.278l-.95.316.023.067.032.064.895-.447zm-.14-.372l.949-.316-.023-.067-.031-.064-.895.447zm-.093-.278l-.948.316.022.068.032.063.894-.447zm-.185-.371l-.895.447.028.055.035.052.832-.554zm-.14-.233l-.948.317.074.224.167.166.707-.707zm-.371-.557l-.8.6.043.057.05.05.707-.707zm-.371-.557l-.802.598.002.002.8-.6zm-3.946-5.292L9.54 5.52l-.4.589.425.571.802-.598zm-8.124 5.756l-.816-.577-.001.002.817.575zM7.861 3.9l.802-.597-.823-1.105-.795 1.125.816.577zm1.625 2.182l-.802.598.002.002.8-.6zm4.178 5.57l-.8.6.8-.6zm-.51 9.239l.732.68.004-.005-.737-.675zm-4.597 2.182l.072.997h.005l-.077-.997zm-1.903-.093l-.174.985.011.001.011.002.152-.988zM1.501 18.8l-.924.38.001.004.923-.384zm4.789 6.044c.573.104 1.19.155 1.757.155v-2c-.455 0-.952-.042-1.4-.123l-.357 1.968zM8.046 25h.512v-2h-.511v2zm.558-.001c2.216-.106 4.216-1.058 5.731-2.625l-1.438-1.39C11.721 22.202 10.193 22.92 8.51 23l.095 2zm5.012-2.32h.512v-2h-.512v2zm.575-.002c3.24-.21 6.072-2.098 7.48-5.125l-1.812-.844c-1.098 2.357-3.28 3.81-5.796 3.973l.128 1.996zm7.484-5.131c1.397-3.053 1.098-6.653-.951-9.333l-1.589 1.215c1.572 2.055 1.83 4.86.72 7.285l1.82.833zm-.942-9.322l-6.546-8.82L12.582.596l6.546 8.82 1.606-1.192zm-8.167-8.8L9.04 4.439l1.636 1.151L14.203.575l-1.636-1.15zM10.66 4.418L8.664 1.726l-1.606 1.19L9.054 5.61l1.607-1.191zM7.046 1.742l-6.36 8.96 1.63 1.157 6.36-8.96-1.63-1.157zM.682 10.707c-1.82 2.6-2.184 5.835-.99 8.793l1.855-.748c-.942-2.335-.656-4.856.774-6.898l-1.64-1.147zm-.989 8.796c1.15 2.823 3.615 4.819 6.603 5.343l.345-1.97c-2.305-.405-4.203-1.937-5.096-4.128l-1.852.755zM12.63 2.175l5.803 7.8 1.605-1.195L14.234.981l-1.605 1.194zm5.801 7.797a6.285 6.285 0 01.64 6.367l1.815.838a8.284 8.284 0 00-.847-8.394L18.43 9.972zm.645 6.354c-.928 1.937-2.637 3.194-4.69 3.431l.229 1.987c2.775-.32 5.057-2.034 6.265-4.554l-1.804-.864zm-3.869 5.132a1.344 1.344 0 00.195-.246l.011-.017a.651.651 0 01-.066.077l-1.415-1.414a1.364 1.364 0 00-.136.16 2.062 2.062 0 00-.058.085l-.012.017c.002-.002.025-.035.067-.077l1.414 1.415zm.327-.446c-.008.015-.016.026.007-.009.023-.034.078-.115.132-.223l-1.789-.895c.008-.015.017-.026-.007.009-.023.035-.078.116-.132.224l1.789.894zm-.048.028c.158-.158.25-.327.298-.423.025-.05.046-.097.058-.124l.017-.038-1.789-.894a2.23 2.23 0 00-.032.067l-.022.048a1.5 1.5 0 01-.021.047l.01-.017a.515.515 0 01.067-.08l1.414 1.414zm.373-.585a3.954 3.954 0 01.043-.085l-.012.02a.61.61 0 01-.08.093l-1.413-1.415a1.463 1.463 0 00-.231.31c-.04.07-.076.142-.096.183l1.789.894zm.194-.363c-.017.05-.04.08.001.012.029-.047.121-.195.184-.383l-1.897-.633c.016-.05.04-.081-.002-.013-.028.048-.12.195-.184.384l1.898.633zm.13-.24c.02-.04.058-.114.09-.187.016-.038.038-.094.058-.159.016-.053.051-.177.051-.334h-2a.897.897 0 01.048-.285l.004-.01-.002.006a.56.56 0 01-.009.017l-.028.057 1.789.895zm.148-.364l.07-.209.07-.208-1.898-.633-.07.209-.07.209 1.898.632zm.085-.286c.057-.114.087-.206.1-.248.01-.028.003-.006-.007.015l-1.789-.894a1.671 1.671 0 00-.1.247c-.01.028-.003.006.007-.015l1.789.895zm.169-.437c.012-.048.033-.114.071-.228.031-.095.08-.238.114-.376l-1.94-.485a3.507 3.507 0 01-.071.228c-.032.095-.08.238-.115.376l1.94.485zm.215-.846v-.093h-2v.093h2zm-.03.15c.04-.163.123-.47.123-.8h-2c0 .04-.01.105-.063.314l1.94.486zm.123-.8c0-.065.002-.036-.004.008a.877.877 0 01-.242.467L15.23 16.33a1.166 1.166 0 00-.323.664c-.018.125-.016.247-.016.275h2zm.046-.232c0 .027-.004.04.01-.045.01-.055.037-.207.037-.373h-2c0-.027.004-.04-.01.044-.009.055-.037.207-.037.374h2zm.047-.418v-.278h-2v.279h2zm0-.279v-.37h-2v.37h2zm0-.37v-.28h-2v.28h2zm0-.28c0-.148.004-.382-.098-.687l-1.897.632-.003-.01a.23.23 0 01-.003-.02v.085h2zm-.047-.37c0-.069.015-.393-.152-.727l-1.788.895a.582.582 0 01-.058-.184l-.002-.023v.038h2zm-.046-.28c0-.18-.032-.328-.043-.381-.012-.063-.003-.031-.003.01h-2c0 .181.031.329.042.382.013.063.004.031.004-.01h2zm-.046-.37a1.459 1.459 0 00-.054-.383c-.007-.028-.005-.022-.003-.01.003.013.01.055.01.114h-2a1.418 1.418 0 00.054.382l.002.01a.64.64 0 01-.01-.114h2zm-.098-.595a.493.493 0 01-.015-.066 2.297 2.297 0 00-.078-.306l-1.897.633c.001.004.003.007.014.065.012.058.034.171.079.306l1.897-.633zm-.147-.503c.033.066.044.124.029.066-.009-.035-.043-.185-.122-.344l-1.789.894c-.033-.066-.044-.124-.03-.065.01.034.043.185.123.344l1.789-.895zm-.039-.147a4.262 4.262 0 00-.09-.241 2.258 2.258 0 01-.05-.13l-1.897.632c.034.1.068.184.09.24.024.06.037.093.05.131l1.897-.632zm-.193-.503c.033.066.044.124.029.066-.009-.035-.043-.185-.122-.344l-1.79.894c-.032-.066-.043-.123-.028-.065.008.034.042.185.122.344l1.789-.895zm-.039-.147a2.38 2.38 0 00-.302-.61l-1.664 1.11a.397.397 0 01.07.133l1.896-.633zm-.24-.503c-.02-.04-.056-.113-.096-.182a1.463 1.463 0 00-.23-.31l-1.415 1.415a.73.73 0 01-.079-.094l-.012-.019a.826.826 0 01.014.027l.03.058 1.788-.895zm-.085-.1a2.01 2.01 0 00-.474-.763l-1.414 1.414-.007-.007.004.005.001.002-.007-.02 1.897-.632zm-.474-.763a.614.614 0 01.067.077l-.011-.018-.058-.084a1.346 1.346 0 00-.137-.16l-1.414 1.413c-.042-.041-.066-.075-.067-.076l.012.017a1.362 1.362 0 00.195.245l1.413-1.414zm-.046-.079a2.953 2.953 0 01-.138-.208c-.055-.089-.134-.217-.233-.349l-1.6 1.2c.04.054.077.111.137.209.056.088.135.216.234.348l1.6-1.2zm-.37-.554L11.17 5.483 9.566 6.68l3.946 5.292 1.603-1.195zm-3.92-4.132l3.063-4.503-1.653-1.125L9.54 5.519l1.654 1.125zM3.06 12.415l5.617-7.938-1.632-1.155-5.617 7.938 1.632 1.155zm4-7.918l1.625 2.181 1.604-1.194-1.625-2.182L7.06 4.497zM8.686 6.68l4.178 5.57 1.6-1.2-4.178-5.57-1.6 1.2zm4.178 5.57c2.025 2.701 1.334 6.02-.448 7.963l1.474 1.352c2.304-2.513 3.284-6.901.574-10.514l-1.6 1.2zm-.444 7.958c-1.029 1.108-2.37 1.745-3.94 1.866l.154 1.994c2.05-.158 3.867-1.007 5.252-2.499l-1.466-1.36zm-3.934 1.865c-.558.04-1.13 0-1.68-.084l-.304 1.977a9.583 9.583 0 002.127.102l-.143-1.995zm-1.658-.08c-2.02-.357-3.602-1.653-4.404-3.578l-1.846.77c1.055 2.53 3.187 4.298 5.902 4.777l.348-1.97zM2.426 18.42c-.847-2.058-.603-4.25.635-6.007l-1.634-1.151c-1.64 2.327-1.953 5.242-.85 7.92l1.849-.762z" fill="#616161" mask="url(#path-1-inside-1)"/></svg>