<svg width="24" height="24" viewBox="0 0 24 24" fill="none" xmlns="http://www.w3.org/2000/svg"><path d="M22.01 6.224a1.69 1.69 0 00-.558 1.256 1.705 1.705 0 001.763 1.705c.106.441.182.898.238 1.367a1.686 1.686 0 00-.006 3.147c-.067.45-.161.89-.278 1.32a1.705 1.705 0 00-1.28 2.964c-.243.391-.515.765-.806 1.13a1.583 1.583 0 00-.628-.13c-.943 0-1.706.763-1.706 1.706 0 .221.047.425.122.607-.395.291-.813.555-1.248.796a1.671 1.671 0 00-1.213-.52c-.93 0-1.684.74-1.707 1.663-.364.084-.738.146-1.121.195a1.69 1.69 0 00-3.155.02 11.45 11.45 0 01-1.487-.31v-.04c0-.943-.764-1.706-1.706-1.706-.473 0-.886.195-1.187.497a11.717 11.717 0 01-.998-.7 1.57 1.57 0 00.121-.604c0-.942-.763-1.706-1.707-1.706-.229 0-.438.05-.625.13-.211-.276-.41-.56-.597-.854.315-.304.516-.73.516-1.211a1.706 1.706 0 00-1.836-1.702 11.525 11.525 0 01-.377-1.783 1.672 1.672 0 00.015-3.063c.058-.412.138-.817.238-1.215h.028c.942 0 1.706-.76 1.706-1.704 0-.492-.209-.926-.536-1.233.23-.39.486-.765.763-1.13.205.093.434.148.68.148.943 0 1.707-.761 1.707-1.705 0-.257-.059-.498-.16-.713.351-.27.72-.518 1.103-.748a1.705 1.705 0 002.95-1.26c.453-.123.916-.22 1.389-.288a1.69 1.69 0 003.167 0c.51.072 1.01.18 1.5.317a1.705 1.705 0 001.705 1.777c.48 0 .903-.201 1.206-.513.364.227.714.48 1.056.75a1.631 1.631 0 00-.148.679c0 .943.764 1.706 1.707 1.706.243 0 .468-.054.669-.144.26.351.499.72.72 1.102z" stroke="#616161"/><path d="M18.565 11.786a6.773 6.773 0 01-6.775 6.772 6.773 6.773 0 01-6.774-6.772 6.773 6.773 0 016.774-6.772 6.773 6.773 0 016.775 6.772z" stroke="#616161"/></svg>