<svg width="268" height="124" viewBox="0 0 268 124" fill="none" xmlns="http://www.w3.org/2000/svg"><path fill="#EB840B" d="M0 0h268v124H0z"/><path fill="#fff" stroke="#fff" stroke-width="2" d="M7.052 28.223h59.022v43.368H7.052z"/><path fill="#fff" d="M5.873 75.245h61.022v7.163H5.873zm0-62.349h61.022v7.163H5.873zm0 82.247h28.654v7.163H5.873z"/><path opacity=".6" fill="#fff" d="M5.873 89.571h61.022v3.98H5.873zm0-5.571h61.022v3.98H5.873z"/><path fill="#fff" stroke="#fff" stroke-width="2" d="M72.318 28.223h59.022v43.368H72.318z"/><path fill="#fff" d="M71.139 75.244h61.022v7.163H71.139zm0 19.898h28.654v7.163H71.139z"/><path opacity=".6" fill="#fff" d="M71.139 89.57h61.022v3.98H71.139zm0-5.57h61.022v3.98H71.139z"/><path fill="#fff" stroke="#fff" stroke-width="2" d="M137.583 28.223h59.022v43.368h-59.022z"/><path fill="#fff" d="M136.403 75.244h61.022v7.163h-61.022zm0 19.898h28.654v7.163h-28.654z"/><path opacity=".6" fill="#fff" d="M136.403 89.57h61.022v3.98h-61.022zm0-5.57h61.022v3.98h-61.022z"/><path fill="#fff" stroke="#fff" stroke-width="2" d="M202.851 28.223h59.022v43.368h-59.022z"/><path fill="#fff" d="M201.671 75.244h61.022v7.163h-61.022zm0 19.898h28.654v7.163h-28.654z"/><path opacity=".6" fill="#fff" d="M201.671 89.57h61.022v3.98h-61.022zm0-5.57h61.022v3.98h-61.022z"/></svg>