<svg width="24" height="24" viewBox="0 0 24 24" fill="none" xmlns="http://www.w3.org/2000/svg">
<path d="M23 12.4445C23.0038 13.911 22.6612 15.3577 22 16.6667C21.216 18.2353 20.0108 19.5546 18.5194 20.477C17.0279 21.3993 15.3091 21.8882 13.5555 21.8889C12.089 21.8927 10.6423 21.5501 9.33332 20.8889L3 23L5.11111 16.6667C4.44992 15.3577 4.10729 13.911 4.11111 12.4445C4.11179 10.6909 4.60068 8.97208 5.52302 7.48064C6.44536 5.98919 7.76472 4.78399 9.33332 4.00003C10.6423 3.33884 12.089 2.99621 13.5555 3.00003H14.1111C16.427 3.1278 18.6145 4.10532 20.2546 5.74543C21.8947 7.38553 22.8722 9.57297 23 11.8889V12.4445Z" stroke="#747474" stroke-width="2" stroke-linecap="round" stroke-linejoin="round"/>
<path d="M23 12.4445C23.0038 13.911 22.6612 15.3577 22 16.6667C21.216 18.2353 20.0108 19.5546 18.5194 20.477C17.0279 21.3993 15.3091 21.8882 13.5555 21.8889C12.089 21.8927 10.6423 21.5501 9.33332 20.8889L3 23L5.11111 16.6667C4.44992 15.3577 4.10729 13.911 4.11111 12.4445C4.11179 10.6909 4.60068 8.97208 5.52302 7.48064C6.44536 5.98919 7.76472 4.78399 9.33332 4.00003C10.6423 3.33884 12.089 2.99621 13.5555 3.00003H14.1111C16.427 3.1278 18.6145 4.10532 20.2546 5.74543C21.8947 7.38553 22.8722 9.57297 23 11.8889V12.4445Z" fill="#F5AA01" stroke="#747474" stroke-width="2" stroke-linecap="round" stroke-linejoin="round"/>
</svg>
