<svg width="1463" height="415" viewBox="0 0 1463 415" fill="none" xmlns="http://www.w3.org/2000/svg">
<path opacity="0.3" fill-rule="evenodd" clip-rule="evenodd" d="M649.5 333C659.165 333 667 325.165 667 315.5C667 305.835 659.165 298 649.5 298C639.835 298 632 305.835 632 315.5C632 325.165 639.835 333 649.5 333ZM649.5 325C654.747 325 659 320.747 659 315.5C659 310.253 654.747 306 649.5 306C644.253 306 640 310.253 640 315.5C640 320.747 644.253 325 649.5 325Z" fill="#222B2A"/>
<path fill-rule="evenodd" clip-rule="evenodd" d="M1206.5 57C1216.17 57 1224 49.165 1224 39.5C1224 29.835 1216.17 22 1206.5 22C1196.83 22 1189 29.835 1189 39.5C1189 49.165 1196.83 57 1206.5 57ZM1206.5 49C1211.75 49 1216 44.7467 1216 39.5C1216 34.2533 1211.75 30 1206.5 30C1201.25 30 1197 34.2533 1197 39.5C1197 44.7467 1201.25 49 1206.5 49Z" fill="#EB840B"/>
<path fill-rule="evenodd" clip-rule="evenodd" d="M839 88C844.523 88 849 83.5229 849 78C849 72.4771 844.523 68 839 68C833.477 68 829 72.4771 829 78C829 83.5229 833.477 88 839 88ZM839 83.4286C841.998 83.4286 844.429 80.9981 844.429 78C844.429 75.0019 841.998 72.5714 839 72.5714C836.002 72.5714 833.571 75.0019 833.571 78C833.571 80.9981 836.002 83.4286 839 83.4286Z" fill="#EB840B"/>
<path d="M1080 90H1094M1087 83V97V83Z" stroke="black" stroke-width="3" stroke-linecap="round" stroke-linejoin="round"/>
<path d="M1265 256H1279M1272 249V263V249Z" stroke="black" stroke-width="3" stroke-linecap="round" stroke-linejoin="round"/>
<path d="M792 406H806M799 399V413V399Z" stroke="#EB840B" stroke-width="3" stroke-linecap="round" stroke-linejoin="round"/>
<path opacity="0.3" fill-rule="evenodd" clip-rule="evenodd" d="M17.5 210C27.165 210 35 202.165 35 192.5C35 182.835 27.165 175 17.5 175C7.83496 175 0 182.835 0 192.5C0 202.165 7.83496 210 17.5 210ZM17.5 202C22.7471 202 27 197.747 27 192.5C27 187.253 22.7471 183 17.5 183C12.2529 183 8 187.253 8 192.5C8 197.747 12.2529 202 17.5 202Z" fill="#222B2A"/>
<path fill-rule="evenodd" clip-rule="evenodd" d="M536.5 132C546.165 132 554 124.165 554 114.5C554 104.835 546.165 97 536.5 97C526.835 97 519 104.835 519 114.5C519 124.165 526.835 132 536.5 132ZM536.5 124C541.747 124 546 119.747 546 114.5C546 109.253 541.747 105 536.5 105C531.253 105 527 109.253 527 114.5C527 119.747 531.253 124 536.5 124Z" fill="#EB840B"/>
<path fill-rule="evenodd" clip-rule="evenodd" d="M111 28C116.523 28 121 23.5229 121 18C121 12.4771 116.523 8 111 8C105.477 8 101 12.4771 101 18C101 23.5229 105.477 28 111 28ZM111 23.4286C113.998 23.4286 116.429 20.9981 116.429 18C116.429 15.0019 113.998 12.5714 111 12.5714C108.002 12.5714 105.571 15.0019 105.571 18C105.571 20.9981 108.002 23.4286 111 23.4286Z" fill="#EB840B"/>
<path d="M352 30H366M359 23V37V23Z" stroke="black" stroke-width="3" stroke-linecap="round" stroke-linejoin="round"/>
<path d="M381 359H395M388 352V366V352Z" stroke="black" stroke-width="3" stroke-linecap="round" stroke-linejoin="round"/>
<path d="M103 373H117M110 366V380V366Z" stroke="#EB840B" stroke-width="3" stroke-linecap="round" stroke-linejoin="round"/>
<path fill-rule="evenodd" clip-rule="evenodd" d="M990.5 353C980.835 353 973 360.835 973 370.5C973 380.165 980.835 388 990.5 388C1000.17 388 1008 380.165 1008 370.5C1008 360.835 1000.17 353 990.5 353ZM990.5 361C985.253 361 981 365.253 981 370.5C981 375.747 985.253 380 990.5 380C995.747 380 1000 375.747 1000 370.5C1000 365.253 995.747 361 990.5 361Z" fill="#EB840B"/>
<path d="M1461 189L1447 189M1454 196L1454 182L1454 196Z" stroke="#EB840B" stroke-width="3" stroke-linecap="round" stroke-linejoin="round"/>
<path d="M666.04 35.5024L665.023 32.6409C673.391 29.6383 682.673 26.2525 687.233 24.5854C684.324 22.6777 679.661 19.6108 677.361 18.0562L674.704 16.2587L677.782 15.3391C687.881 12.3199 687.881 12.3199 698.188 8.53987L699.225 11.394C690.009 14.7754 688.964 15.1579 681.743 17.325C685.768 19.9942 691.358 23.6512 691.428 23.697L693.961 25.3536L691.115 26.3975C690.982 26.4461 677.636 31.3424 666.04 35.5024Z" fill="#414042"/>
<path d="M160.983 250.387L159.966 247.526C168.335 244.523 177.616 241.137 182.176 239.47C179.268 237.562 174.604 234.496 172.305 232.941L169.647 231.143L172.725 230.224C182.825 227.205 182.825 227.205 193.132 223.425L194.169 226.279C184.953 229.66 183.908 230.043 176.687 232.21C180.711 234.879 186.302 238.536 186.372 238.582L188.905 240.238L186.058 241.282C185.925 241.331 172.579 246.227 160.983 250.387Z" fill="#EB840B"/>
<path d="M1244.39 372.565L1241.88 374.262C1236.88 366.905 1231.29 358.76 1228.54 354.758C1227.42 358.051 1225.61 363.331 1224.68 365.945L1223.6 368.967L1221.94 366.215C1216.5 357.185 1216.5 357.185 1210.27 348.145L1212.78 346.429C1218.35 354.513 1218.98 355.43 1222.88 361.883C1224.46 357.321 1226.61 350.996 1226.64 350.917L1227.61 348.051L1229.33 350.548C1229.41 350.665 1237.48 362.37 1244.39 372.565Z" fill="#414042"/>
</svg>
