<svg width="22" height="17" viewBox="0 0 22 17" fill="none" xmlns="http://www.w3.org/2000/svg">
<path d="M4.39583 3.30591C4.39583 3.51963 4.18952 3.69291 3.93507 3.69291H0.462185C0.207736 3.69291 0.00142599 3.51963 0.00142599 3.30591V0.388979C0.00142599 0.175263 0.207736 0.0019794 0.462185 0.0019794H3.93507C4.18952 0.0019794 4.39583 0.175263 4.39583 0.388979V3.30591Z" fill="#F5AA01"/>
<path d="M13.1961 3.30393C13.1961 3.51765 12.9898 3.69093 12.7353 3.69093H9.26246C9.00801 3.69093 8.8017 3.51765 8.8017 3.30393V0.386999C8.8017 0.173283 9.00801 0 9.26246 0H12.7353C12.9898 0 13.1961 0.173283 13.1961 0.386999V3.30393Z" fill="#F5AA01"/>
<path d="M22 3.30393C22 3.51765 21.7937 3.69093 21.5392 3.69093H18.0664C17.8119 3.69093 17.6056 3.51765 17.6056 3.30393V0.386999C17.6056 0.173283 17.8119 0 18.0664 0H21.5392C21.7937 0 22 0.173283 22 0.386999V3.30393Z" fill="#F5AA01"/>
<path d="M4.3944 9.95968C4.3944 10.1734 4.18809 10.3467 3.93364 10.3467H0.460759C0.20631 10.3467 0 10.1734 0 9.95968V7.04275C0 6.82904 0.20631 6.65575 0.460759 6.65575H3.93364C4.18809 6.65575 4.3944 6.82904 4.3944 7.04275V9.95968Z" fill="#F5AA01"/>
<path d="M13.1971 9.95937C13.1971 10.1731 12.9908 10.3464 12.7364 10.3464H9.26348C9.00903 10.3464 8.80272 10.1731 8.80272 9.95937V7.04244C8.80272 6.82873 9.00903 6.65544 9.26348 6.65544H12.7364C12.9908 6.65544 13.1971 6.82873 13.1971 7.04244V9.95937Z" fill="#F5AA01"/>
<path d="M21.9998 9.95937C21.9998 10.1731 21.7935 10.3464 21.5391 10.3464H18.0662C17.8117 10.3464 17.6054 10.1731 17.6054 9.95937V7.04244C17.6054 6.82873 17.8117 6.65544 18.0662 6.65544H21.5391C21.7935 6.65544 21.9998 6.82873 21.9998 7.04244V9.95937Z" fill="#F5AA01"/>
<path d="M4.3944 16.6127C4.3944 16.8264 4.18809 16.9997 3.93364 16.9997H0.460759C0.20631 16.9997 0 16.8264 0 16.6127V13.6957C0 13.482 0.20631 13.3087 0.460759 13.3087H3.93364C4.18809 13.3087 4.3944 13.482 4.3944 13.6957V16.6127Z" fill="#F5AA01"/>
<path d="M13.1971 16.613C13.1971 16.8267 12.9908 17 12.7364 17H9.26348C9.00903 17 8.80272 16.8267 8.80272 16.613V13.6961C8.80272 13.4824 9.00903 13.3091 9.26348 13.3091H12.7364C12.9908 13.3091 13.1971 13.4824 13.1971 13.6961V16.613Z" fill="#F5AA01"/>
<path d="M21.9998 16.613C21.9998 16.8267 21.7935 17 21.5391 17H18.0662C17.8117 17 17.6054 16.8267 17.6054 16.613V13.6961C17.6054 13.4824 17.8117 13.3091 18.0662 13.3091H21.5391C21.7935 13.3091 21.9998 13.4824 21.9998 13.6961V16.613Z" fill="#F5AA01"/>
</svg>
