<svg width="208" height="245" viewBox="0 0 208 245" fill="none" xmlns="http://www.w3.org/2000/svg"><path opacity=".2" fill-rule="evenodd" clip-rule="evenodd" d="M207.066 245H5c23.314-37.708 59.898-62 101.033-62 41.134 0 77.719 24.292 101.033 62z" fill="url(#paint0_linear)"/><path d="M47.849 170.893c-4.263 3.426-16.803 7.138-20.377 2.689-3.574-4.449-3.016-10.832 1.248-14.258 4.263-3.425 8.874-1.195 12.448 3.254 3.575 4.449 10.945 4.89 6.681 8.315z" fill="url(#paint1_linear)"/><path d="M145 144.14c0 3.943-12.749 9.86-16.702 9.86-3.953 0 2.386-5.917 2.386-9.86 0-3.943 3.205-7.14 7.158-7.14 3.953 0 7.158 3.197 7.158 7.14z" fill="url(#paint2_linear)"/><path d="M6.052 113.232c3.342-2.093 15.122 5.573 17.22 8.924 2.098 3.351-6.281 1.118-9.623 3.21-3.343 2.093-7.753 1.073-9.85-2.278-2.098-3.351-1.09-7.764 2.253-9.856z" fill="url(#paint3_linear)"/><circle cx="150.5" cy="90.5" r="5.5" fill="#F5AA01"/><path d="M83.445 196.479H55.633v19.15h51.731v-33.025H55.633v4.87h27.812a1.68 1.68 0 110 3.36H55.633v2.284h27.812a1.68 1.68 0 110 3.361zm6.235-9.005h4.679a1.68 1.68 0 110 3.36H89.68a1.68 1.68 0 110-3.36zm0 5.644h4.679a1.68 1.68 0 010 3.361H89.68a1.68 1.68 0 010-3.361z" fill="url(#paint4_linear)"/><path d="M86.92 114.897l6.196-4.47h-7.675a1.68 1.68 0 01-1.6-1.166l-2.335-7.263-2.355 7.267a1.68 1.68 0 01-1.599 1.163H69.91l6.196 4.47a1.68 1.68 0 01.613 1.887l-2.4 7.308 6.206-4.514a1.68 1.68 0 011.98.001l6.183 4.513-2.382-7.312a1.684 1.684 0 01.615-1.884z" fill="#F5AA01"/><path d="M115.095 79.626v-.659h-38.6a1.68 1.68 0 110-3.36h38.6v-5.495H47.9v9.513a1.68 1.68 0 01-1.68 1.68H33.462v23.201c0 4.135 1.392 8.21 3.92 11.473a19.053 19.053 0 009.487 6.626 1.682 1.682 0 011.178 1.454c.606 6.687 3.224 13.012 7.575 18.289a33.648 33.648 0 0016.659 10.927 1.682 1.682 0 011.178 1.265c.851 4.001.776 8.261-.224 12.663-.815 3.647-2.243 7.497-4.47 12.04H94.19c-2.207-4.42-3.62-8.197-4.434-11.826-1.032-4.524-1.094-8.741-.187-12.885a1.677 1.677 0 011.176-1.256c6.521-1.881 12.283-5.671 16.661-10.963 4.346-5.24 6.964-11.551 7.573-18.255a1.68 1.68 0 011.174-1.453 19.28 19.28 0 009.484-6.62c2.546-3.351 3.893-7.322 3.893-11.479v-23.2h-12.753a1.68 1.68 0 01-1.682-1.68zM47.9 115.856a1.68 1.68 0 01-2.461 1.488 15.406 15.406 0 01-5.498-4.899 15.036 15.036 0 01-2.636-8.499V87.359c0-.928.752-1.68 1.68-1.68h7.234c.928 0 1.68.752 1.68 1.68v28.497zm10.418-38.57c0-.927.753-1.68 1.68-1.68h8.17a1.68 1.68 0 010 3.361h-8.17a1.68 1.68 0 01-1.68-1.68zm13.77 52.587a1.682 1.682 0 01-2.586-1.884l3.64-11.086-9.418-6.794a1.681 1.681 0 01.984-3.043H76.33l3.583-11.06a1.68 1.68 0 011.6-1.162h.002a1.68 1.68 0 011.597 1.166l3.553 11.056h11.653a1.68 1.68 0 01.984 3.043l-9.42 6.796 3.61 11.088a1.681 1.681 0 01-2.588 1.878l-9.393-6.855-9.425 6.857zm36.882-2.966l-.03.302c-.442 4.46-1.182 11.924-20.112 22.688a1.679 1.679 0 01-2.291-.63 1.68 1.68 0 01.63-2.292c17.417-9.903 18.05-16.285 18.427-20.098l.032-.312a1.68 1.68 0 113.344.342zm16.72-39.548v16.586c0 3.081-.913 6.022-2.64 8.505-1.362 2.026-3.267 3.726-5.493 4.894a1.675 1.675 0 01-1.65-.051 1.678 1.678 0 01-.811-1.437V87.359c0-.928.753-1.68 1.68-1.68h7.233a1.68 1.68 0 011.681 1.68z" fill="url(#paint5_linear)"/><path d="M81.515 21.32a1.68 1.68 0 001.68-1.68V1.68a1.68 1.68 0 00-3.36 0v17.96c0 .927.752 1.68 1.68 1.68zm73.282 18.532a1.68 1.68 0 00-2.278-.677l-16.525 8.949a1.68 1.68 0 101.6 2.955l16.526-8.949a1.681 1.681 0 00.677-2.278zM27.004 48.123l-16.523-8.949a1.68 1.68 0 10-1.6 2.956l16.523 8.949a1.682 1.682 0 001.6-2.955z" fill="#EB840B"/><path d="M111.065 31.483a1.68 1.68 0 002.312-.551l5.831-9.479a1.68 1.68 0 10-2.863-1.76l-5.831 9.478a1.68 1.68 0 00.551 2.312zm-61.441-.552a1.68 1.68 0 002.311.552 1.681 1.681 0 00.551-2.313l-5.83-9.478a1.68 1.68 0 10-2.863 1.761l5.83 9.479zm31.891 16.516a1.68 1.68 0 001.68-1.68V35.662a1.68 1.68 0 00-3.36 0v10.103c0 .929.752 1.68 1.68 1.68zm29.279 16.929c.286 0 .576-.073.842-.227l8.761-5.08a1.68 1.68 0 00-1.687-2.908l-8.76 5.081a1.68 1.68 0 00.844 3.134zm-68.189-5.308l8.76 5.081a1.68 1.68 0 101.686-2.907l-8.76-5.081a1.68 1.68 0 10-1.686 2.907z" fill="#F5AA01"/><path d="M96.791 53.113a1.68 1.68 0 002.297-.612l3.087-5.33a1.68 1.68 0 10-2.908-1.684l-3.087 5.33a1.68 1.68 0 00.611 2.296zM63.91 52.5a1.678 1.678 0 002.295.613 1.68 1.68 0 00.613-2.296l-3.085-5.33a1.68 1.68 0 00-2.909 1.683l3.085 5.33zm49.032 166.49H50.05l-11.467 1.877a1.68 1.68 0 000 3.361h89.045a1.68 1.68 0 000-3.361" fill="#EB840B"/><defs><linearGradient id="paint0_linear" x1="5" y1="194.47" x2="41.018" y2="295.733" gradientUnits="userSpaceOnUse"><stop stop-color="#F5AA01"/><stop offset="1" stop-color="#EB840B"/></linearGradient><linearGradient id="paint1_linear" x1="33.707" y1="155.317" x2="32.246" y2="179.978" gradientUnits="userSpaceOnUse"><stop stop-color="#F5AA01"/><stop offset="1" stop-color="#EB840B"/></linearGradient><linearGradient id="paint2_linear" x1="127" y1="140.145" x2="142.575" y2="154.371" gradientUnits="userSpaceOnUse"><stop stop-color="#F5AA01"/><stop offset="1" stop-color="#EB840B"/></linearGradient><linearGradient id="paint3_linear" x1="12.217" y1="130.608" x2="16.01" y2="109.858" gradientUnits="userSpaceOnUse"><stop stop-color="#F5AA01"/><stop offset="1" stop-color="#EB840B"/></linearGradient><linearGradient id="paint4_linear" x1="55.633" y1="188.714" x2="84.687" y2="227.974" gradientUnits="userSpaceOnUse"><stop stop-color="#F5AA01"/><stop offset="1" stop-color="#EB840B"/></linearGradient><linearGradient id="paint5_linear" x1="33.463" y1="90.302" x2="130.171" y2="163.739" gradientUnits="userSpaceOnUse"><stop stop-color="#F5AA01"/><stop offset="1" stop-color="#EB840B"/></linearGradient></defs></svg>