<svg width="253" height="247" viewBox="0 0 253 247" fill="none" xmlns="http://www.w3.org/2000/svg"><path opacity=".2" fill-rule="evenodd" clip-rule="evenodd" d="M252.066 247H50c23.314-37.708 59.898-62 101.033-62 41.134 0 77.719 24.292 101.033 62z" fill="url(#paint0_linear)"/><path d="M157.942 220.99H95.051l-11.468 1.877a1.68 1.68 0 000 3.361h89.045a1.68 1.68 0 000-3.361" fill="#AAA"/><path d="M128.445 198.479h-27.812v19.15h51.731v-33.025h-51.731v4.87h27.812a1.68 1.68 0 110 3.36h-27.812v2.284h27.812a1.68 1.68 0 110 3.361zm6.235-9.005h4.679a1.68 1.68 0 110 3.36h-4.679a1.68 1.68 0 110-3.36zm0 5.644h4.679a1.68 1.68 0 010 3.361h-4.679a1.68 1.68 0 010-3.361z" fill="#ABABAB"/><path d="M160.096 81.626v-.659h-38.602a1.68 1.68 0 010-3.36h38.602v-5.495H92.9v9.513a1.68 1.68 0 01-1.68 1.68H78.463v23.201c0 4.135 1.391 8.21 3.919 11.473a19.053 19.053 0 009.487 6.626 1.682 1.682 0 011.179 1.454c.605 6.687 3.224 13.012 7.574 18.289a33.649 33.649 0 0016.659 10.927 1.683 1.683 0 011.179 1.265c.851 4.001.775 8.261-.225 12.663-.815 3.647-2.243 7.497-4.47 12.04h25.425c-2.208-4.42-3.621-8.197-4.434-11.826-1.032-4.524-1.094-8.741-.188-12.885a1.679 1.679 0 011.176-1.256c6.522-1.881 12.283-5.671 16.661-10.963 4.346-5.24 6.965-11.551 7.573-18.255a1.681 1.681 0 011.175-1.453 19.282 19.282 0 009.483-6.62c2.546-3.351 3.894-7.322 3.894-11.479v-23.2h-12.753a1.68 1.68 0 01-1.681-1.68zM92.9 117.856a1.68 1.68 0 01-2.46 1.488 15.407 15.407 0 01-5.498-4.899 15.036 15.036 0 01-2.636-8.499V89.359c0-.928.752-1.68 1.68-1.68h7.233c.928 0 1.68.752 1.68 1.68l.001 28.497zm10.418-38.57c0-.927.753-1.68 1.681-1.68h8.17a1.681 1.681 0 010 3.361h-8.17a1.68 1.68 0 01-1.681-1.68zm13.769 52.587a1.682 1.682 0 01-2.585-1.884l3.64-11.086-9.417-6.794a1.68 1.68 0 01.983-3.043h11.623l3.584-11.06a1.68 1.68 0 011.599-1.162h.002a1.68 1.68 0 011.597 1.166l3.553 11.056h11.653a1.68 1.68 0 01.984 3.043l-9.42 6.796 3.61 11.088a1.681 1.681 0 01-2.588 1.878l-9.393-6.855-9.425 6.857zm36.883-2.966l-.03.302c-.442 4.46-1.182 11.924-20.111 22.688a1.68 1.68 0 11-1.662-2.922c17.417-9.903 18.05-16.285 18.427-20.098l.033-.312a1.68 1.68 0 113.343.342zm16.72-39.548v16.586c0 3.081-.912 6.022-2.64 8.505-1.362 2.026-3.267 3.726-5.492 4.894a1.676 1.676 0 01-1.651-.051 1.678 1.678 0 01-.811-1.437V89.359c0-.928.753-1.68 1.681-1.68h7.233c.928 0 1.68.751 1.68 1.68z" fill="#AAA"/><mask id="mask0" maskUnits="userSpaceOnUse" x="0" y="0" width="242" height="242"><circle cx="121" cy="121" r="121" fill="#C4C4C4"/></mask><g mask="url(#mask0)"><circle cx="136" cy="43" r="9" fill="#F5AA01"/><circle cx="173" cy="57" r="9" fill="#F5AA01"/><circle cx="194" cy="97" r="12" fill="#EB840B"/><circle cx="186" cy="131" r="9" fill="#F5AA01"/><circle cx="200" cy="160" r="6" fill="#EB840B"/><circle cx="213" cy="117" r="6" fill="#EB840B"/><circle cx="206" cy="66" r="6" fill="#EB840B"/><circle cx="165" cy="34" r="6" fill="#EB840B"/><circle cx="175" cy="171" r="12" fill="#EB840B"/><circle r="12" transform="scale(-1 1) rotate(5.719 -508.228 -954.68)" fill="#EB840B"/><circle r="9" transform="scale(-1 1) rotate(5.719 -635.345 -619.83)" fill="#F5AA01"/><circle r="12" transform="scale(-1 1) rotate(5.719 -1046.25 -429.615)" fill="#EB840B"/><circle r="9" transform="scale(-1 1) rotate(5.719 -1382.605 -526.694)" fill="#F5AA01"/><circle r="6" transform="scale(-1 1) rotate(5.719 -1679.896 -401.054)" fill="#EB840B"/><circle r="6" transform="scale(-1 1) rotate(5.719 -1255.959 -249.419)" fill="#EB840B"/><circle r="6" transform="scale(-1 1) rotate(5.719 -741.935 -293.991)" fill="#EB840B"/><circle r="6" transform="scale(-1 1) rotate(5.719 -401.105 -688.414)" fill="#EB840B"/><circle r="6" transform="scale(-1 1) rotate(5.719 -311.753 -1187.738)" fill="#EB840B"/><circle r="12" transform="scale(-1 1) rotate(5.719 -1777.52 -656.81)" fill="#EB840B"/></g><defs><linearGradient id="paint0_linear" x1="50" y1="196.47" x2="86.018" y2="297.733" gradientUnits="userSpaceOnUse"><stop stop-color="#F5AA01"/><stop offset="1" stop-color="#EB840B"/></linearGradient></defs></svg>