<?xml version="1.0" encoding="utf-8"?><svg width="112" height="155" fill="none" xmlns="http://www.w3.org/2000/svg" viewBox="0 0 112 155"><path d="M2.92 67.976L67.974 2.922h43.841L2.92 111.817v-43.84z" fill="#F2C94C"/><path d="M1.92 66.976L66.974 1.922h43.841L1.92 110.817v-43.84z" fill="#F5AA01"/><path d="M34.146 66.437l3.042-3.043-8.312-8.312 3.293-3.294-2.666-2.666-9.63 9.63 2.667 2.666 3.293-3.294 8.313 8.313zm12.937-12.498c3.387-3.388 3.372-8.485.22-11.637-3.184-3.184-8.219-3.2-11.607.188-3.387 3.387-3.371 8.485-.22 11.637 3.185 3.184 8.219 3.2 11.607-.188zm-2.714-2.776c-1.662 1.662-4.187 1.427-5.771-.157-1.615-1.615-1.85-4.078-.188-5.74 1.678-1.678 4.203-1.443 5.787.14 1.615 1.616 1.85 4.079.172 5.757zm10.007-4.957l3.043-3.043-3.137-3.136 1.506-1.506c2.729-2.729 3.356-6.085.768-8.673-2.462-2.462-5.677-2.102-8.453.674l-4.705 4.705 10.978 10.979zm-2.478-8.563l-2.901-2.902 1.427-1.427c1.098-1.098 2.259-1.255 3.2-.314.893.894.8 2.118-.283 3.2l-1.443 1.443z" fill="#000"/></svg>