<svg width="32" height="33" viewBox="0 0 32 33" fill="none" xmlns="http://www.w3.org/2000/svg">
<path d="M16 23.2757C19.7656 23.2757 22.8182 20.2231 22.8182 16.4575C22.8182 12.6919 19.7656 9.63934 16 9.63934C12.2344 9.63934 9.18182 12.6919 9.18182 16.4575C9.18182 20.2231 12.2344 23.2757 16 23.2757Z" fill="#F5AA01"/>
<path d="M16 1.45752V4.18479M16 28.7302V31.4575M5.39091 5.84843L7.32727 7.78479M24.6727 25.1302L26.6091 27.0666M1 16.4575H3.72727M28.2727 16.4575H31M5.39091 27.0666L7.32727 25.1302M24.6727 7.78479L26.6091 5.84843M22.8182 16.4575C22.8182 20.2231 19.7656 23.2757 16 23.2757C12.2344 23.2757 9.18182 20.2231 9.18182 16.4575C9.18182 12.6919 12.2344 9.63934 16 9.63934C19.7656 9.63934 22.8182 12.6919 22.8182 16.4575Z" stroke="#616161" stroke-width="2" stroke-linecap="round" stroke-linejoin="round"/>
</svg>
