<svg width="45" height="22" viewBox="0 0 45 22" fill="none" xmlns="http://www.w3.org/2000/svg"><path d="M31.53 17.997c0 2.218 1.665 4.003 3.734 4.003 2.068 0 3.733-1.785 3.733-4.003 0-2.217-1.665-4.002-3.733-4.002-2.069 0-3.784 1.84-3.734 4.002zm1.514.055c0-1.299 1.009-2.38 2.22-2.38 1.21 0 2.22 1.081 2.22 2.38 0 1.298-1.01 2.38-2.22 2.38-1.262 0-2.27-1.082-2.22-2.38z" fill="#616161"/><path d="M0 14.86v3.192c0 .433.353.811.757.811h2.976c.454 0 .807-.325.757-.811 0-3.083 2.371-5.625 5.247-5.625 2.875 0 5.246 2.542 5.246 5.625 0 .433.353.811.757.811h13.47c.454 0 .807-.325.756-.811 0-3.083 2.371-5.625 5.247-5.625s5.247 2.542 5.247 5.625c0 .433.353.811.756.811h3.027c.404 0 .757-.378.757-.811V14.86c0-.433-.353-.812-.757-.812l-.1-2c-.051-1.299-.657-2.435-1.665-3.138-1.918-1.352-5.197-2.055-8.375-2.11C29.815 1.232 23.105-.932 14.277.366h-.05C9.383 1.285 7.213 4.043 5.6 6.91L1.362 8.424c-.303.109-.504.379-.504.758v4.813c-.454 0-.757.379-.858.866zm21.037-8.437l.05-4.327c0-.216.202-.432.404-.378 4.036.378 7.315 1.839 9.938 4.38.253.271.101.704-.252.704H21.39c-.202 0-.353-.163-.353-.379zm-9.08-3.461c0-.163.1-.325.252-.379a18.28 18.28 0 012.169-.595 29.82 29.82 0 014.742-.379c.202 0 .353.217.353.433v4.381c0 .216-.151.379-.353.379h-6.71c-.201 0-.353-.163-.353-.379l-.1-3.461zm-4.188 3.19a9.557 9.557 0 012.068-2.27c.253-.163.606 0 .606.324l.05 2.163c0 .27-.151.433-.353.433H8.122c-.302 0-.454-.379-.353-.65z" fill="#616161"/><path d="M6.054 17.997C6.054 20.215 7.719 22 9.787 22s3.733-1.785 3.733-4.003c0-2.217-1.665-4.002-3.733-4.002s-3.733 1.84-3.733 4.002zm1.513.055c0-1.299 1.01-2.38 2.22-2.38 1.21 0 2.22 1.081 2.22 2.38 0 1.298-1.01 2.38-2.22 2.38-1.21 0-2.22-1.082-2.22-2.38z" fill="#616161"/></svg>