<svg width="41" height="26" viewBox="0 0 41 26" fill="none" xmlns="http://www.w3.org/2000/svg"><path d="M5.986 13.936C2.716 13.936 0 16.484 0 19.864S2.666 26 5.935 26c3.27 0 5.936-2.756 5.936-6.136 0-.26 0-.52-.05-.78l1.508-.676 2.566 2.652c.15.156.301.208.503.208.15 0 .301-.052.402-.104l6.438-4.472.05-.052c1.912-1.716 4.628-2.08 6.59-2.08.302 0 .604.052.855.052-2.364 2.704-5.785 2.392-5.785 2.392l-2.867 2.236h7.244c-.05.26-.05.468-.05.728 0 3.38 2.514 6.032 5.784 6.032s5.935-2.756 5.935-6.136c0-.936-.252-1.924-.654-2.756.654.312.855-.26.453-.78 0 0-1.861-3.484-6.992-2.756l1.56-1.456c.1-.104.15-.26.2-.416.101-.416.101-.78.152-1.144h-1.258c-1.056-1.872.855-3.172.855-3.172.151.208.252.364.352.572A9.935 9.935 0 0033.097 2.6C31.437.78 29.577.104 29.526.052 29.476 0 29.325 0 29.274 0c-.251 0-.402.104-.553.26-.15.208-.201.572-.05.832.754 1.3 1.106 2.236 1.257 2.912l-1.056-.208a.678.678 0 00-.755.572c-.05.364.202.728.554.78l1.308.208c0 .104 0 .104-.05.156-.303.572-1.057.624-1.359.624h-.1c-2.717-.832-4.678-1.144-4.729-1.144-.352 0-.754-.052-1.056-.052-1.66 0-3.169.676-4.275 1.924a7.914 7.914 0 00-.956 1.404c-2.867-.364-4.477-2.08-4.477-2.08a.635.635 0 00-.503-.208l-7.746.052c-.251 0-.503.156-.553.416l-.453.936c-.201.312-.05.728.302.936l.704.364h-.805a.568.568 0 00-.553.572c0 .312.252.572.553.572h.352l-2.263 2.808a.648.648 0 00.05.832c.1.104.252.156.352.156.202 0 .352-.052.453-.208L5.734 9.88h.604l1.257 2.964 4.829 2.08v.988l-1.56.676a5.84 5.84 0 00-4.878-2.652zm6.438-.624L8.652 11.7l-.604-1.404 4.376 2.132v.884zm22.786 9.984c-1.71 0-3.119-1.456-3.119-3.276 0-.624.201-1.248.503-1.768l1.207 2.548 2.515-1.3-1.308-2.756h.202c1.76 0 3.169 1.456 3.169 3.276 0 1.82-1.409 3.276-3.17 3.276zm-29.224 0c-1.76 0-3.119-1.456-3.119-3.224 0-1.82 1.408-3.276 3.169-3.276.855 0 1.61.364 2.213.936l-2.615 1.144 1.106 2.652 2.364-1.04c-.201 1.56-1.509 2.808-3.118 2.808z" fill="#616161"/></svg>