<svg width="42" height="24" viewBox="0 0 42 24" fill="none" xmlns="http://www.w3.org/2000/svg"><path d="M30.14 16.85c-1.997 0-3.615 1.603-3.615 3.575C26.525 22.4 28.144 24 30.14 24c1.998 0 3.614-1.6 3.614-3.575 0-1.971-1.616-3.576-3.614-3.576zm0 5.23a1.66 1.66 0 01-1.668-1.655 1.66 1.66 0 011.669-1.652c.923 0 1.67.739 1.67 1.652a1.66 1.66 0 01-1.67 1.655zM6.032 16.85c-1.997 0-3.615 1.603-3.615 3.575C2.417 22.4 4.035 24 6.032 24c1.993 0 3.615-1.6 3.615-3.575 0-1.971-1.622-3.576-3.615-3.576zm0 5.23a1.663 1.663 0 01-1.674-1.655c0-.913.75-1.652 1.674-1.652.92 0 1.67.739 1.67 1.652 0 .916-.75 1.655-1.67 1.655z" fill="#616161"/><path d="M41.309 0H11.081a.684.684 0 00-.688.68v3.907c0 .363.288.58.472.58h6.329c.243 0 .449.135.571.328l-1 .972a.678.678 0 00-.566-.316h-5.806v.075h-.596a.683.683 0 00-.688.683L6.7 9.422l-4.633.565a.68.68 0 00-.69.68l-.459 2.438v2.48c0 .3-.201.557-.482.644L0 19.089c0 .376.308.684.687.684h.398v.059h.458a4.88 4.88 0 01.329-1.252 4.56 4.56 0 014.16-2.667c.61 0 1.194.123 1.726.34l.043-.043c1.357.66 2.342 2.006 2.54 3.622h15.144c.297-2.284 2.268-4.054 4.656-4.054 2.389 0 4.358 1.77 4.653 4.054h6.515a.685.685 0 00.691-.684V.68a.684.684 0 00-.691-.68zm-25.91 9.41c0 .38-.292.688-.65.688h-5.41a.685.685 0 01-.691-.68l1.378-1.481c0-.38.308-.68.688-.68h4.035c.358 0 .65.305.65.684v1.47z" fill="#616161"/></svg>