<svg width="26" height="20" viewBox="0 0 26 20" fill="none" xmlns="http://www.w3.org/2000/svg"><path fill-rule="evenodd" clip-rule="evenodd" d="M12.515 1.968c-.706-.004-5.3.103-6.804 3.571l-.287.769c-.455-.264-1.608-.75-2.765-.672-1.19.08-1.59.928-1.641 1.349v.001l-.003.033c-.015.236-.035.532.034.818.073.302.246.592.623.793a1.673 1.673 0 00.911.202 2.318 2.318 0 00-.84 1.788v6.339a2.08 2.08 0 004.161 0v-1.307h6.61v-.097H1.84V10.62c0-1.23.996-2.226 2.226-2.226h8.449v-.097h-7.73l1.016-2.722c.798-1.84 2.488-2.719 3.995-3.138a10.552 10.552 0 012.719-.372v-.097zM1.84 15.652h3.968v1.307a1.984 1.984 0 01-3.968 0v-1.307zm.872-6.92a2.312 2.312 0 011.354-.435h.617L5.39 6.4c-.435-.256-1.581-.744-2.724-.667-1.132.075-1.505.876-1.552 1.262l-.002.027c-.016.238-.035.521.031.792.068.279.225.545.575.73a1.576 1.576 0 00.865.19h.027l.05-.003.052.001z" stroke="#616161"/><path fill-rule="evenodd" clip-rule="evenodd" d="M7.12 11.096c-.459-.273-1.169-.477-1.774-.417-.304.03-.585.126-.795.318-.21.193-.343.478-.357.872-.017.381.269 1.143 1.308 1.58.525.22 1.052.176 1.485.031.432-.145.775-.391.932-.582.163-.199.213-.503.097-.83-.116-.325-.397-.674-.896-.972zm-2.829.777c.013-.374.137-.632.326-.804.189-.174.448-.265.738-.294.582-.058 1.271.14 1.716.404.484.29.747.622.854.922.106.3.057.568-.08.735-.144.175-.47.412-.889.552-.416.14-.919.181-1.417-.028-1.007-.423-1.263-1.152-1.248-1.487zm9.192-9.905c.706-.004 5.3.103 6.804 3.571l.287.769c.455-.264 1.608-.75 2.765-.672 1.19.08 1.59.928 1.641 1.349v.001l.003.033c.015.236.035.532-.034.818a1.177 1.177 0 01-.623.793 1.673 1.673 0 01-.911.202c.513.426.84 1.069.84 1.788v6.339a2.08 2.08 0 01-4.161 0v-1.307h-6.61v-.097h10.674V10.62c0-1.23-.996-2.226-2.226-2.226h-8.449v-.097h7.73l-1.016-2.722c-.798-1.84-2.488-2.719-3.995-3.138a10.553 10.553 0 00-2.719-.372v-.097zm10.675 13.684H20.19v1.307a1.984 1.984 0 003.968 0v-1.307zm-.872-6.92a2.312 2.312 0 00-1.354-.435h-.616L20.608 6.4c.435-.256 1.581-.744 2.724-.667 1.132.075 1.505.876 1.552 1.262l.002.027c.016.238.035.521-.031.792a1.08 1.08 0 01-.575.73 1.576 1.576 0 01-.864.19h-.028l-.05-.003-.052.001z" stroke="#616161"/><path fill-rule="evenodd" clip-rule="evenodd" d="M18.878 11.096c.459-.273 1.169-.477 1.774-.417.304.03.585.126.795.318.21.193.343.478.357.872.017.381-.269 1.143-1.308 1.58-.525.22-1.052.176-1.485.031-.432-.145-.775-.391-.932-.582-.163-.199-.213-.503-.097-.83.116-.325.397-.674.896-.972z" stroke="#616161"/><path d="M13 18.5V0m3 11h-2m2 2h-2m9-7l.581 3.094" stroke="#616161"/></svg>