<svg width="25" height="23" viewBox="0 0 25 23" fill="none" xmlns="http://www.w3.org/2000/svg"><path d="M15.261 3.41A2.539 2.539 0 0012.726.875H12.6v.003a2.54 2.54 0 00-2.412 2.532v.001h0c.002.263.044.523.124.772l.99 5.944.018.104h2.81l.017-.104.989-5.935a2.55 2.55 0 00.125-.78v0-.002zm-.886.575l-.004.011-.002.012-.906 5.437h-1.476l-.907-5.442-.002-.01-.003-.011-.007-.02a1.745 1.745 0 011.658-2.3 1.744 1.744 0 011.656 2.305l-.007.018z" fill="#616161" stroke="#616161" stroke-width=".25"/><path d="M12.726 9.57a4.557 4.557 0 00-4.554 4.552 4.558 4.558 0 004.554 4.554 4.557 4.557 0 004.552-4.554 4.556 4.556 0 00-4.552-4.553zm0 .536a4.011 4.011 0 014.016 4.016 4.012 4.012 0 01-4.016 4.017 4.013 4.013 0 01-4.017-4.017 4.012 4.012 0 014.017-4.016z" fill="#616161" stroke="#616161" stroke-width=".25"/><path d="M16.832 14.843l-.099-.037-.053.092-1.298 2.249-.053.091.082.068 4.647 3.824c.176.197.383.365.611.498h0a2.54 2.54 0 003.465-.928 2.539 2.539 0 00-.913-3.455l-.002-.001-.014-.009a2.534 2.534 0 00-.73-.278l-5.643-2.114zm5.416 2.87l.01.003.01.002.02.004a1.745 1.745 0 011.164 2.585 1.745 1.745 0 01-2.824.281l-.015-.016-.007-.008-.008-.007-4.255-3.503.738-1.278 5.167 1.936zM8.667 14.898l-.052-.092-.1.037-5.645 2.115c-.255.055-.5.148-.727.277l-.014.009-.002.001a2.539 2.539 0 00-.913 3.455 2.54 2.54 0 003.464.928h0c.229-.133.435-.301.612-.498l4.647-3.824.082-.068-.053-.091-1.299-2.25zm-3.918 5.66l-.01.007-.007.01-.012.015a1.745 1.745 0 01-2.825-.283 1.745 1.745 0 011.164-2.585s0 0 0 0l.021-.004.01-.002.01-.004 5.166-1.936.739 1.278-4.256 3.503z" fill="#616161" stroke="#616161" stroke-width=".25"/></svg>