<svg width="26" height="20" viewBox="0 0 26 20" fill="none" xmlns="http://www.w3.org/2000/svg"><path fill-rule="evenodd" clip-rule="evenodd" d="M7.368 10.501c-.478-.284-1.217-.497-1.847-.434-.315.03-.608.131-.826.331-.22.2-.357.497-.372.907-.018.397.28 1.19 1.36 1.644.547.23 1.096.183 1.546.032.45-.15.806-.407.97-.606.17-.206.22-.523.1-.862-.12-.34-.412-.703-.931-1.012zm-2.944.808c.014-.388.143-.657.339-.837.197-.18.466-.275.768-.305.605-.06 1.323.145 1.785.42.504.301.778.647.889.96.11.312.06.59-.084.764-.15.182-.489.429-.924.575-.433.145-.956.188-1.474-.03-1.048-.44-1.315-1.198-1.299-1.547h0zm14.187-.808c.478-.284 1.217-.497 1.847-.434.315.03.608.131.826.331.22.2.357.497.372.907.018.396-.28 1.19-1.36 1.644-.547.23-1.096.183-1.546.032-.45-.15-.806-.407-.97-.606-.17-.207-.22-.523-.1-.862.12-.34.412-.703.931-1.012zm2.944.808c-.014-.388-.143-.657-.339-.837-.197-.18-.466-.275-.768-.305-.605-.06-1.323.145-1.785.42-.504.301-.778.647-.889.96-.11.312-.06.59.084.764.15.182.489.429.924.574.433.146.956.189 1.474-.03 1.048-.44 1.315-1.197 1.299-1.546h0z" stroke="#616161"/><path fill-rule="evenodd" clip-rule="evenodd" d="M5.901 4.72c1.697-3.913 7.175-3.715 7.175-3.715s5.375-.289 7.023 3.513l.343.984c.502-.28 1.665-.751 2.831-.674 1.238.083 1.656.966 1.709 1.404v.001l.002.035c.016.245.037.553-.035.85a1.225 1.225 0 01-.648.826 1.74 1.74 0 01-.937.21c.527.443.863 1.108.863 1.851V16.6a2.165 2.165 0 01-4.33 0v-1.359H6.103v1.36a2.165 2.165 0 01-4.33 0v-6.596c0-.748.34-1.417.874-1.86a1.74 1.74 0 01-.948-.21 1.225 1.225 0 01-.648-.825c-.072-.298-.051-.606-.035-.85l.002-.035v-.002c.053-.438.47-1.32 1.709-1.403 1.203-.08 2.402.424 2.876.699l.298-.8zm18.225 10.42H1.874v-5.135A2.316 2.316 0 014.19 7.69h17.62a2.316 2.316 0 012.316 2.316v5.135zm-4.128.101v1.36a2.064 2.064 0 004.128 0v-1.36h-4.128zm-13.996 0H1.874v1.36a2.064 2.064 0 004.128 0v-1.36zM23.23 8.05h.043l.052.002h0l.029.002a1.64 1.64 0 00.9-.198c.363-.194.527-.47.597-.76.069-.282.049-.577.032-.824l-.002-.028c-.048-.402-.437-1.236-1.614-1.314-1.153-.077-2.31.397-2.791.67l.695 1.99h.64c.53 0 1.02.17 1.419.46zM4.19 7.59c-.526 0-1.012.168-1.409.453a.381.381 0 00-.054-.002l-.052.003h-.01l-.018.001a1.64 1.64 0 01-.9-.198 1.124 1.124 0 01-.598-.76c-.069-.282-.049-.576-.032-.824l.002-.028C1.167 5.833 1.556 5 2.733 4.92c1.19-.079 2.382.428 2.835.695L4.83 7.589h-.64zm11.754-6.156c1.535.4 3.254 1.264 4.06 3.121l1.06 3.035H4.94l1.056-2.832c.83-1.915 2.589-2.83 4.157-3.265a10.978 10.978 0 012.905-.387h.027a1.252 1.252 0 01.055-.002 9.838 9.838 0 01.796.016c.525.033 1.242.115 2.009.314z" stroke="#616161"/></svg>