<svg width="21" height="24" viewBox="0 0 21 24" fill="none" xmlns="http://www.w3.org/2000/svg"><path fill-rule="evenodd" clip-rule="evenodd" d="M1 4.364V2.636h8.98v8.853a2.51 2.51 0 011 0V2.636h8.98v1.728h1V0h-1v1.636H1V0H0v4.364h1zm9.98 12.014a2.504 2.504 0 01-1 0v4.764H1V19.43H0v4.483h1v-1.771h18.96v1.771h1V19.43h-1v1.712h-8.98v-4.764z" fill="#616161"/><circle cx="10.376" cy="2.196" r="1.559" fill="#616161"/><circle cx="10.376" cy="21.315" r="1.559" fill="#616161"/><path fill-rule="evenodd" clip-rule="evenodd" d="M10.48 17.26a3.327 3.327 0 100-6.654 3.327 3.327 0 000 6.653zm0-.833a2.495 2.495 0 10-.001-4.99 2.495 2.495 0 000 4.99z" fill="#616161"/></svg>