<svg width="208" height="245" viewBox="0 0 208 245" fill="none" xmlns="http://www.w3.org/2000/svg">
<path opacity="0.2" fill-rule="evenodd" clip-rule="evenodd" d="M207.066 245H5C28.3137 207.292 64.8985 183 106.033 183C147.167 183 183.752 207.292 207.066 245Z" fill="url(#paint0_linear)"/>
<path d="M47.849 170.893C43.5855 174.319 31.0463 178.031 27.4719 173.582C23.8976 169.133 24.4562 162.75 28.7198 159.324C32.9833 155.899 37.594 158.129 41.1683 162.578C44.7427 167.027 52.1126 167.468 47.849 170.893Z" fill="url(#paint1_linear)"/>
<path d="M145 144.14C145 148.083 132.251 154 128.298 154C124.345 154 130.684 148.083 130.684 144.14C130.684 140.197 133.889 137 137.842 137C141.795 137 145 140.197 145 144.14Z" fill="url(#paint2_linear)"/>
<path d="M6.05189 113.232C9.39421 111.139 21.1743 118.805 23.2721 122.156C25.3699 125.507 16.991 123.274 13.6487 125.366C10.3064 127.459 5.89631 126.439 3.7985 123.088C1.7007 119.737 2.70958 115.324 6.05189 113.232Z" fill="url(#paint3_linear)"/>
<circle cx="150.5" cy="90.5" r="5.5" fill="#F5AA01"/>
<path d="M83.4452 196.479H55.6328V215.629H107.364V182.604H95.3264H67.6401H55.6328V187.474H83.4452C84.3736 187.474 85.1258 188.226 85.1258 189.154C85.1258 190.082 84.3731 190.834 83.4452 190.834H55.6328V193.118H83.4452C84.3736 193.118 85.1258 193.87 85.1258 194.798C85.1258 195.727 84.3731 196.479 83.4452 196.479ZM89.6804 187.474H94.359C95.287 187.474 96.0391 188.226 96.0391 189.154C96.0391 190.082 95.2864 190.834 94.359 190.834H89.6804C88.7525 190.834 88.0003 190.082 88.0003 189.154C88.0003 188.226 88.7525 187.474 89.6804 187.474ZM89.6804 193.118H94.359C95.287 193.118 96.0391 193.871 96.0391 194.799C96.0391 195.727 95.2864 196.479 94.359 196.479H89.6804C88.7525 196.479 88.0003 195.726 88.0003 194.799C88.0003 193.871 88.7525 193.118 89.6804 193.118Z" fill="url(#paint4_linear)"/>
<path d="M86.9204 114.897L93.1162 110.427H85.4406C84.71 110.427 84.0634 109.956 83.8405 109.261L81.506 101.998L79.1511 109.265C78.9267 109.958 78.2811 110.428 77.5525 110.428H69.9092L76.105 114.898C76.6988 115.326 76.9468 116.09 76.7183 116.785L74.3183 124.093L80.5238 119.579C81.1135 119.149 81.9134 119.149 82.5031 119.58L88.6866 124.093L86.305 116.781C86.0796 116.086 86.3281 115.325 86.9204 114.897Z" fill="#F5AA01"/>
<path d="M115.095 79.6258V78.9674H76.4942C75.5662 78.9674 74.8135 78.2152 74.8135 77.2867C74.8135 76.3588 75.5662 75.6061 76.4942 75.6061H115.095V70.1123H47.8999V79.6253C47.8999 80.5537 47.1472 81.3059 46.2193 81.3059H33.4634C33.4634 81.3059 33.4634 100.37 33.4634 104.506C33.4634 108.641 34.855 112.716 37.3826 115.979C39.7524 119.099 43.1188 121.447 46.87 122.605C47.5212 122.806 47.987 123.381 48.0485 124.059C48.6536 130.746 51.2724 137.071 55.6226 142.348C59.9774 147.609 65.7386 151.389 72.2818 153.275C72.8777 153.447 73.3307 153.933 73.4603 154.54C74.3114 158.541 74.2361 162.801 73.2359 167.203C72.4212 170.85 70.9932 174.7 68.7653 179.243H94.1905C91.9826 174.823 90.5699 171.046 89.7563 167.417C88.7243 162.893 88.6623 158.676 89.5692 154.532C89.7004 153.928 90.1529 153.446 90.7452 153.276C97.2663 151.395 103.028 147.605 107.406 142.313C111.752 137.073 114.37 130.762 114.979 124.058C115.039 123.381 115.504 122.808 116.153 122.605C119.88 121.447 123.248 119.096 125.637 115.985C128.183 112.634 129.53 108.663 129.53 104.506V83V81.3059H128H116.777C115.848 81.3064 115.095 80.5542 115.095 79.6258ZM47.8999 115.856C47.8999 116.443 47.5924 116.989 47.0888 117.293C46.8218 117.455 46.5205 117.537 46.2193 117.537C45.9518 117.537 45.6838 117.473 45.4389 117.344C43.2684 116.207 41.3675 114.513 39.9415 112.445C38.2147 109.911 37.3053 106.974 37.3053 103.946C37.3053 100.917 37.3053 87.3593 37.3053 87.3593C37.3053 86.4313 38.0574 85.6786 38.9854 85.6786H46.2187C47.1467 85.6786 47.8994 86.4313 47.8994 87.3593L47.8999 115.856ZM58.3182 77.2867C58.3182 76.3588 59.0709 75.6061 59.9989 75.6061H68.1689C69.0968 75.6061 69.8495 76.3588 69.8495 77.2867C69.8495 78.2152 69.0968 78.9674 68.1689 78.9674H59.9989C59.0709 78.9674 58.3182 78.2152 58.3182 77.2867ZM72.0871 129.873C71.792 130.087 71.4451 130.194 71.0982 130.194C70.7508 130.194 70.4039 130.087 70.1088 129.872C69.5195 129.442 69.2741 128.682 69.5016 127.989L73.1421 116.903L63.7244 110.109C63.1332 109.682 62.8846 108.924 63.1086 108.229C63.333 107.536 63.9786 107.066 64.7077 107.066H76.3312L79.9143 96.0068C80.1388 95.3135 80.7849 94.8442 81.5135 94.8442H81.5156C82.2447 94.8452 82.8903 95.3166 83.1132 96.0104L86.6656 107.066H98.3188C99.0484 107.066 99.6945 107.536 99.9184 108.229C100.143 108.923 99.8938 109.682 99.3026 110.109L89.8823 116.905L93.4931 127.993C93.7186 128.687 93.4721 129.446 92.8823 129.874C92.2926 130.302 91.4938 130.301 90.9045 129.871L81.512 123.016L72.0871 129.873ZM108.97 126.907L108.94 127.209C108.498 131.669 107.758 139.133 88.8283 149.897C88.5665 150.046 88.2806 150.117 87.9993 150.117C87.4147 150.117 86.8464 149.812 86.5369 149.267C86.0778 148.46 86.3602 147.435 87.1672 146.975C104.584 137.072 105.217 130.69 105.594 126.877L105.626 126.565C105.72 125.641 106.545 124.971 107.468 125.064C108.392 125.158 109.065 125.982 108.97 126.907ZM125.69 87.3587V103.945C125.69 107.026 124.777 109.967 123.05 112.45C121.688 114.476 119.783 116.176 117.557 117.344C117.312 117.472 117.044 117.537 116.776 117.537C116.475 117.537 116.174 117.455 115.907 117.293C115.404 116.99 115.096 116.444 115.096 115.856V87.3587C115.096 86.4308 115.849 85.6781 116.776 85.6781H124.009C124.937 85.6781 125.69 86.4303 125.69 87.3587Z" fill="url(#paint5_linear)"/>
<path d="M81.5151 21.3199C82.4435 21.3199 83.1957 20.5672 83.1957 19.6393V1.68063C83.1957 0.752696 82.443 0 81.5151 0C80.5872 0 79.8345 0.752696 79.8345 1.68063V19.6393C79.8345 20.5672 80.5872 21.3199 81.5151 21.3199Z" fill="#EB840B"/>
<path d="M154.797 39.852C154.356 39.0358 153.336 38.732 152.519 39.1747L135.994 48.1235C135.177 48.5652 134.874 49.5853 135.316 50.4016C135.621 50.9631 136.199 51.2818 136.795 51.2818C137.066 51.2818 137.34 51.2168 137.594 51.0789L154.12 42.1301C154.935 41.6879 155.239 40.6683 154.797 39.852Z" fill="#EB840B"/>
<path d="M27.0043 48.1233L10.4808 39.1744C9.66458 38.7322 8.64493 39.0356 8.20325 39.8518C7.76106 40.6675 8.0644 41.6877 8.88012 42.1299L25.4036 51.0787C25.6582 51.2165 25.9324 51.2816 26.2024 51.2816C26.7993 51.2816 27.3773 50.9629 27.6822 50.4013C28.1233 49.5851 27.82 48.5649 27.0043 48.1233Z" fill="#EB840B"/>
<path d="M111.065 31.483C111.339 31.6515 111.643 31.7325 111.944 31.7325C112.508 31.7325 113.059 31.4481 113.377 30.9316L119.208 21.4535C119.694 20.6629 119.448 19.6279 118.657 19.1416C117.867 18.6554 116.831 18.9013 116.345 19.6924L110.514 29.1706C110.028 29.9612 110.274 30.9967 111.065 31.483Z" fill="#F5AA01"/>
<path d="M49.6236 30.9315C49.9413 31.448 50.4921 31.7323 51.0567 31.7323C51.357 31.7323 51.6613 31.6514 51.9355 31.4828C52.7261 30.9965 52.9725 29.961 52.4863 29.1704L46.6553 19.6923C46.1686 18.9017 45.1335 18.6542 44.3429 19.1415C43.5528 19.6277 43.3058 20.6627 43.7926 21.4533L49.6236 30.9315Z" fill="#F5AA01"/>
<path d="M81.5151 47.4469C82.4435 47.4469 83.1957 46.6947 83.1957 45.7663V35.6635C83.1957 34.7351 82.443 33.9829 81.5151 33.9829C80.5872 33.9829 79.8345 34.7351 79.8345 35.6635V45.7663C79.8345 46.6947 80.5872 47.4469 81.5151 47.4469Z" fill="#F5AA01"/>
<path d="M110.794 64.3765C111.08 64.3765 111.37 64.3033 111.636 64.1495L120.397 59.0682C121.199 58.6024 121.473 57.5741 121.007 56.7717C120.542 55.9688 119.513 55.6946 118.71 56.1609L109.95 61.2423C109.147 61.708 108.873 62.7364 109.339 63.5388C109.65 64.0768 110.214 64.3765 110.794 64.3765Z" fill="#F5AA01"/>
<path d="M42.6046 59.0677L51.3648 64.149C51.6303 64.3027 51.9198 64.376 52.2062 64.376C52.7857 64.376 53.3498 64.0763 53.6614 63.5388C54.1271 62.7359 53.8535 61.7075 53.0511 61.2423L44.2903 56.1609C43.4874 55.6946 42.459 55.9688 41.9938 56.7717C41.5275 57.5736 41.8011 58.6019 42.6046 59.0677Z" fill="#F5AA01"/>
<path d="M96.7913 53.1131C97.0572 53.2668 97.3462 53.3396 97.6321 53.3396C98.2126 53.3396 98.7768 53.0393 99.0883 52.5013L102.175 47.1705C102.641 46.367 102.367 45.3387 101.563 44.8739C100.761 44.4092 99.7318 44.6823 99.2666 45.4862L96.1795 50.8171C95.7137 51.62 95.9884 52.6479 96.7913 53.1131Z" fill="#EB840B"/>
<path d="M63.9093 52.5005C64.2203 53.039 64.785 53.3392 65.365 53.3392C65.6504 53.3392 65.9404 53.2665 66.2053 53.1133C67.0082 52.648 67.2829 51.6202 66.8181 50.8173L63.7331 45.4864C63.2683 44.6835 62.2405 44.4088 61.437 44.8736C60.6331 45.3383 60.359 46.3667 60.8242 47.1696L63.9093 52.5005Z" fill="#EB840B"/>
<path d="M112.942 218.99H109.044H53.9515H50.0502L38.583 220.867C37.655 220.867 36.9028 221.62 36.9028 222.547C36.9028 223.476 37.6555 224.228 38.583 224.228H127.628C128.557 224.228 129.308 223.475 129.308 222.547C129.308 221.619 128.556 220.867 127.628 220.867" fill="#EB840B"/>
<defs>
<linearGradient id="paint0_linear" x1="5" y1="194.47" x2="41.0181" y2="295.733" gradientUnits="userSpaceOnUse">
<stop stop-color="#F5AA01"/>
<stop offset="1" stop-color="#EB840B"/>
</linearGradient>
<linearGradient id="paint1_linear" x1="33.7069" y1="155.317" x2="32.246" y2="179.978" gradientUnits="userSpaceOnUse">
<stop stop-color="#F5AA01"/>
<stop offset="1" stop-color="#EB840B"/>
</linearGradient>
<linearGradient id="paint2_linear" x1="127" y1="140.145" x2="142.575" y2="154.371" gradientUnits="userSpaceOnUse">
<stop stop-color="#F5AA01"/>
<stop offset="1" stop-color="#EB840B"/>
</linearGradient>
<linearGradient id="paint3_linear" x1="12.2174" y1="130.608" x2="16.0104" y2="109.858" gradientUnits="userSpaceOnUse">
<stop stop-color="#F5AA01"/>
<stop offset="1" stop-color="#EB840B"/>
</linearGradient>
<linearGradient id="paint4_linear" x1="55.6328" y1="188.714" x2="84.687" y2="227.974" gradientUnits="userSpaceOnUse">
<stop stop-color="#F5AA01"/>
<stop offset="1" stop-color="#EB840B"/>
</linearGradient>
<linearGradient id="paint5_linear" x1="33.4634" y1="90.3015" x2="130.171" y2="163.739" gradientUnits="userSpaceOnUse">
<stop stop-color="#F5AA01"/>
<stop offset="1" stop-color="#EB840B"/>
</linearGradient>
</defs>
</svg>
