<svg width="32" height="25" viewBox="0 0 32 25" fill="none" xmlns="http://www.w3.org/2000/svg">
<path d="M1 12.5273C1 12.5273 6.39303 1.74121 15.8308 1.74121C25.2687 1.74121 30.6617 12.5273 30.6617 12.5273C30.6617 12.5273 25.2687 23.3134 15.8308 23.3134C6.39303 23.3134 1 12.5273 1 12.5273Z" stroke="#616161" stroke-width="2" stroke-linecap="round" stroke-linejoin="round"/>
<path d="M15.8308 16.5721C18.0647 16.5721 19.8756 14.7611 19.8756 12.5273C19.8756 10.2934 18.0647 8.4825 15.8308 8.4825C13.597 8.4825 11.7861 10.2934 11.7861 12.5273C11.7861 14.7611 13.597 16.5721 15.8308 16.5721Z" stroke="#616161" stroke-width="2" stroke-linecap="round" stroke-linejoin="round"/>
<path d="M1 12.5273C1 12.5273 6.39303 1.74121 15.8308 1.74121C25.2687 1.74121 30.6617 12.5273 30.6617 12.5273C30.6617 12.5273 25.2687 23.3134 15.8308 23.3134C6.39303 23.3134 1 12.5273 1 12.5273Z" fill="#F5AA01"/>
<path d="M15.8308 16.5721C18.0647 16.5721 19.8756 14.7611 19.8756 12.5273C19.8756 10.2934 18.0647 8.4825 15.8308 8.4825C13.597 8.4825 11.7861 10.2934 11.7861 12.5273C11.7861 14.7611 13.597 16.5721 15.8308 16.5721Z" fill="#F5AA01"/>
<path d="M1 12.5273C1 12.5273 6.39303 1.74121 15.8308 1.74121C25.2687 1.74121 30.6617 12.5273 30.6617 12.5273C30.6617 12.5273 25.2687 23.3134 15.8308 23.3134C6.39303 23.3134 1 12.5273 1 12.5273Z" stroke="#616161" stroke-width="2" stroke-linecap="round" stroke-linejoin="round"/>
<path d="M15.8308 16.5721C18.0647 16.5721 19.8756 14.7611 19.8756 12.5273C19.8756 10.2934 18.0647 8.4825 15.8308 8.4825C13.597 8.4825 11.7861 10.2934 11.7861 12.5273C11.7861 14.7611 13.597 16.5721 15.8308 16.5721Z" stroke="#616161" stroke-width="2" stroke-linecap="round" stroke-linejoin="round"/>
</svg>
