<svg width="29" height="30" viewBox="0 0 29 30" fill="none" xmlns="http://www.w3.org/2000/svg">
<path d="M28 14.7637C28 22.2195 21.9558 28.2637 14.5 28.2637M28 14.7637C28 7.30783 21.9558 1.26367 14.5 1.26367M28 14.7637H22.6M14.5 28.2637C7.04416 28.2637 1 22.2195 1 14.7637M14.5 28.2637V22.8637M1 14.7637C1 7.30783 7.04416 1.26367 14.5 1.26367M1 14.7637H6.4M14.5 1.26367V6.66367" stroke="#616161" stroke-width="2" stroke-linecap="round" stroke-linejoin="round"/>
<path d="M14.5 28.2637C21.9558 28.2637 28 22.2195 28 14.7637C28 7.30783 21.9558 1.26367 14.5 1.26367C7.04416 1.26367 1 7.30783 1 14.7637C1 22.2195 7.04416 28.2637 14.5 28.2637Z" fill="#F5AA01"/>
<path d="M28 14.7637C28 22.2195 21.9558 28.2637 14.5 28.2637M28 14.7637C28 7.30783 21.9558 1.26367 14.5 1.26367M28 14.7637H22.6M14.5 28.2637C7.04416 28.2637 1 22.2195 1 14.7637M14.5 28.2637V22.8637M1 14.7637C1 7.30783 7.04416 1.26367 14.5 1.26367M1 14.7637H6.4M14.5 1.26367V6.66367" stroke="#616161" stroke-width="2" stroke-linecap="round" stroke-linejoin="round"/>
</svg>
