<svg width="25" height="17" viewBox="0 0 25 17" fill="none" xmlns="http://www.w3.org/2000/svg">
<path d="M2.27848 3.63689C3.06601 3.63689 3.70442 3.02414 3.70442 2.26827C3.70442 1.51241 3.06601 0.899658 2.27848 0.899658C1.49095 0.899658 0.852539 1.51241 0.852539 2.26827C0.852539 3.02414 1.49095 3.63689 2.27848 3.63689Z" fill="#616161"/>
<path d="M23.3027 3.16835H8.68834C8.22205 3.16835 7.84404 2.80555 7.84404 2.35801V2.17855C7.84404 1.73101 8.22204 1.3682 8.68834 1.3682H23.3027C23.769 1.3682 24.147 1.731 24.147 2.17855V2.35801C24.147 2.80555 23.769 3.16835 23.3027 3.16835Z" fill="#616161"/>
<path d="M2.27848 9.83009C3.06601 9.83009 3.70442 9.21734 3.70442 8.46147C3.70442 7.70561 3.06601 7.09286 2.27848 7.09286C1.49095 7.09286 0.852539 7.70561 0.852539 8.46147C0.852539 9.21734 1.49095 9.83009 2.27848 9.83009Z" fill="#616161"/>
<path d="M23.3027 9.36155H8.68834C8.22205 9.36155 7.84404 8.99875 7.84404 8.5512V8.37174C7.84404 7.9242 8.22204 7.56139 8.68834 7.56139H23.3027C23.769 7.56139 24.147 7.92419 24.147 8.37174V8.5512C24.147 8.99875 23.769 9.36155 23.3027 9.36155Z" fill="#616161"/>
<path d="M2.27848 16.0233C3.06601 16.0233 3.70442 15.4105 3.70442 14.6547C3.70442 13.8988 3.06601 13.2861 2.27848 13.2861C1.49095 13.2861 0.852539 13.8988 0.852539 14.6547C0.852539 15.4105 1.49095 16.0233 2.27848 16.0233Z" fill="#616161"/>
<path d="M23.3027 15.5548H8.68834C8.22205 15.5548 7.84404 15.1919 7.84404 14.7444V14.5649C7.84404 14.1174 8.22204 13.7546 8.68834 13.7546H23.3027C23.769 13.7546 24.147 14.1174 24.147 14.5649V14.7444C24.147 15.1919 23.769 15.5548 23.3027 15.5548Z" fill="#616161"/>
<path d="M2.27848 3.63689C3.06601 3.63689 3.70442 3.02414 3.70442 2.26827C3.70442 1.51241 3.06601 0.899658 2.27848 0.899658C1.49095 0.899658 0.852539 1.51241 0.852539 2.26827C0.852539 3.02414 1.49095 3.63689 2.27848 3.63689Z" stroke="#616161" stroke-width="0.7" stroke-miterlimit="10" stroke-linecap="round" stroke-linejoin="round"/>
<path d="M23.3027 3.16835H8.68834C8.22205 3.16835 7.84404 2.80555 7.84404 2.35801V2.17855C7.84404 1.73101 8.22204 1.3682 8.68834 1.3682H23.3027C23.769 1.3682 24.147 1.731 24.147 2.17855V2.35801C24.147 2.80555 23.769 3.16835 23.3027 3.16835Z" stroke="#616161" stroke-width="0.7" stroke-miterlimit="10" stroke-linecap="round" stroke-linejoin="round"/>
<path d="M2.27848 9.83009C3.06601 9.83009 3.70442 9.21734 3.70442 8.46147C3.70442 7.70561 3.06601 7.09286 2.27848 7.09286C1.49095 7.09286 0.852539 7.70561 0.852539 8.46147C0.852539 9.21734 1.49095 9.83009 2.27848 9.83009Z" stroke="#616161" stroke-width="0.7" stroke-miterlimit="10" stroke-linecap="round" stroke-linejoin="round"/>
<path d="M23.3027 9.36155H8.68834C8.22205 9.36155 7.84404 8.99875 7.84404 8.5512V8.37174C7.84404 7.9242 8.22204 7.56139 8.68834 7.56139H23.3027C23.769 7.56139 24.147 7.92419 24.147 8.37174V8.5512C24.147 8.99875 23.769 9.36155 23.3027 9.36155Z" stroke="#616161" stroke-width="0.7" stroke-miterlimit="10" stroke-linecap="round" stroke-linejoin="round"/>
<path d="M2.27848 16.0233C3.06601 16.0233 3.70442 15.4105 3.70442 14.6547C3.70442 13.8988 3.06601 13.2861 2.27848 13.2861C1.49095 13.2861 0.852539 13.8988 0.852539 14.6547C0.852539 15.4105 1.49095 16.0233 2.27848 16.0233Z" stroke="#616161" stroke-width="0.7" stroke-miterlimit="10" stroke-linecap="round" stroke-linejoin="round"/>
<path d="M23.3027 15.5548H8.68834C8.22205 15.5548 7.84404 15.1919 7.84404 14.7444V14.5649C7.84404 14.1174 8.22204 13.7546 8.68834 13.7546H23.3027C23.769 13.7546 24.147 14.1174 24.147 14.5649V14.7444C24.147 15.1919 23.769 15.5548 23.3027 15.5548Z" stroke="#616161" stroke-width="0.7" stroke-miterlimit="10" stroke-linecap="round" stroke-linejoin="round"/>
</svg>
