<svg width="25" height="17" viewBox="0 0 25 17" fill="none" xmlns="http://www.w3.org/2000/svg"><path d="M2.278 3.637c.788 0 1.426-.613 1.426-1.369S3.066.9 2.278.9C1.491.9.853 1.512.853 2.268c0 .756.638 1.369 1.425 1.369zm21.025-.469H8.688c-.466 0-.844-.362-.844-.81v-.18c0-.447.378-.81.844-.81h14.615c.466 0 .844.363.844.81v.18c0 .448-.378.81-.844.81zM2.278 9.83c.788 0 1.426-.613 1.426-1.369 0-.755-.638-1.368-1.426-1.368-.787 0-1.425.613-1.425 1.368 0 .756.638 1.37 1.425 1.37zm21.025-.468H8.688c-.466 0-.844-.363-.844-.81v-.18c0-.448.378-.81.844-.81h14.615c.466 0 .844.362.844.81v.18c0 .447-.378.81-.844.81zM2.278 16.023c.788 0 1.426-.612 1.426-1.368 0-.756-.638-1.369-1.426-1.369-.787 0-1.425.613-1.425 1.369s.638 1.368 1.425 1.368zm21.025-.468H8.688c-.466 0-.844-.363-.844-.81v-.18c0-.448.378-.81.844-.81h14.615c.466 0 .844.362.844.81v.18c0 .447-.378.81-.844.81z" fill="#616161"/><path d="M2.278 3.637c.788 0 1.426-.613 1.426-1.369S3.066.9 2.278.9C1.491.9.853 1.512.853 2.268c0 .756.638 1.369 1.425 1.369zm21.025-.469H8.688c-.466 0-.844-.362-.844-.81v-.18c0-.447.378-.81.844-.81h14.615c.466 0 .844.363.844.81v.18c0 .448-.378.81-.844.81zM2.278 9.83c.788 0 1.426-.613 1.426-1.369 0-.755-.638-1.368-1.426-1.368-.787 0-1.425.613-1.425 1.368 0 .756.638 1.37 1.425 1.37zm21.025-.468H8.688c-.466 0-.844-.363-.844-.81v-.18c0-.448.378-.81.844-.81h14.615c.466 0 .844.362.844.81v.18c0 .447-.378.81-.844.81zM2.278 16.023c.788 0 1.426-.612 1.426-1.368 0-.756-.638-1.369-1.426-1.369-.787 0-1.425.613-1.425 1.369s.638 1.368 1.425 1.368zm21.025-.468H8.688c-.466 0-.844-.363-.844-.81v-.18c0-.448.378-.81.844-.81h14.615c.466 0 .844.362.844.81v.18c0 .447-.378.81-.844.81z" stroke="#616161" stroke-width=".7" stroke-miterlimit="10" stroke-linecap="round" stroke-linejoin="round"/></svg>