<svg width="22" height="17" viewBox="0 0 22 17" fill="none" xmlns="http://www.w3.org/2000/svg"><path d="M4.396 3.306c0 .214-.206.387-.46.387H.461c-.254 0-.46-.173-.46-.387V.389c0-.214.206-.387.46-.387h3.473c.255 0 .46.173.46.387v2.917zm8.8-.002c0 .214-.206.387-.46.387H9.261c-.254 0-.46-.173-.46-.387V.387c0-.214.206-.387.46-.387h3.473c.255 0 .461.173.461.387v2.917zm8.804 0c0 .214-.206.387-.46.387h-3.474c-.254 0-.46-.173-.46-.387V.387c0-.214.206-.387.46-.387h3.473c.255 0 .461.173.461.387v2.917zM4.394 9.96c0 .213-.206.387-.46.387H.46c-.255 0-.461-.174-.461-.387V7.043c0-.214.206-.387.46-.387h3.474c.254 0 .46.173.46.387V9.96zm8.803 0c0 .213-.206.386-.46.386H9.262c-.254 0-.46-.173-.46-.387V7.042c0-.213.206-.387.46-.387h3.473c.255 0 .461.174.461.387V9.96zm8.803 0c0 .213-.206.386-.46.386h-3.474c-.254 0-.46-.173-.46-.387V7.042c0-.213.206-.387.46-.387h3.473c.255 0 .46.174.46.387V9.96zM4.394 16.613c0 .213-.206.387-.46.387H.46c-.254 0-.46-.174-.46-.387v-2.917c0-.214.206-.387.46-.387h3.474c.254 0 .46.173.46.387v2.917zm8.803 0c0 .214-.206.387-.46.387H9.262c-.254 0-.46-.173-.46-.387v-2.917c0-.214.206-.387.46-.387h3.473c.255 0 .461.173.461.387v2.917zm8.803 0c0 .214-.206.387-.46.387h-3.474c-.254 0-.46-.173-.46-.387v-2.917c0-.214.206-.387.46-.387h3.473c.255 0 .46.173.46.387v2.917z" fill="#F5AA01"/></svg>