<svg width="1463" height="415" viewBox="0 0 1463 415" fill="none" xmlns="http://www.w3.org/2000/svg"><path opacity=".3" fill-rule="evenodd" clip-rule="evenodd" d="M649.5 333c9.665 0 17.5-7.835 17.5-17.5s-7.835-17.5-17.5-17.5-17.5 7.835-17.5 17.5 7.835 17.5 17.5 17.5zm0-8a9.5 9.5 0 009.5-9.5 9.5 9.5 0 00-9.5-9.5 9.5 9.5 0 00-9.5 9.5 9.5 9.5 0 009.5 9.5z" fill="#222B2A"/><path fill-rule="evenodd" clip-rule="evenodd" d="M1206.5 57c9.67 0 17.5-7.835 17.5-17.5s-7.83-17.5-17.5-17.5-17.5 7.835-17.5 17.5 7.83 17.5 17.5 17.5zm0-8c5.25 0 9.5-4.253 9.5-9.5s-4.25-9.5-9.5-9.5-9.5 4.253-9.5 9.5 4.25 9.5 9.5 9.5zM839 88c5.523 0 10-4.477 10-10s-4.477-10-10-10-10 4.477-10 10 4.477 10 10 10zm0-4.571a5.429 5.429 0 100-10.858 5.429 5.429 0 000 10.858z" fill="#EB840B"/><path d="M1080 90h14m-7-7v14-14zm178 173h14m-7-7v14-14z" stroke="#000" stroke-width="3" stroke-linecap="round" stroke-linejoin="round"/><path d="M792 406h14m-7-7v14-14z" stroke="#EB840B" stroke-width="3" stroke-linecap="round" stroke-linejoin="round"/><path opacity=".3" fill-rule="evenodd" clip-rule="evenodd" d="M17.5 210c9.665 0 17.5-7.835 17.5-17.5S27.165 175 17.5 175 0 182.835 0 192.5 7.835 210 17.5 210zm0-8a9.5 9.5 0 009.5-9.5 9.5 9.5 0 00-9.5-9.5 9.5 9.5 0 00-9.5 9.5 9.5 9.5 0 009.5 9.5z" fill="#222B2A"/><path fill-rule="evenodd" clip-rule="evenodd" d="M536.5 132c9.665 0 17.5-7.835 17.5-17.5S546.165 97 536.5 97s-17.5 7.835-17.5 17.5 7.835 17.5 17.5 17.5zm0-8a9.5 9.5 0 009.5-9.5 9.5 9.5 0 00-9.5-9.5 9.5 9.5 0 00-9.5 9.5 9.5 9.5 0 009.5 9.5zM111 28c5.523 0 10-4.477 10-10s-4.477-10-10-10-10 4.477-10 10 4.477 10 10 10zm0-4.571a5.429 5.429 0 100-10.858 5.429 5.429 0 000 10.858z" fill="#EB840B"/><path d="M352 30h14m-7-7v14-14zm22 336h14m-7-7v14-14z" stroke="#000" stroke-width="3" stroke-linecap="round" stroke-linejoin="round"/><path d="M103 373h14m-7-7v14-14z" stroke="#EB840B" stroke-width="3" stroke-linecap="round" stroke-linejoin="round"/><path fill-rule="evenodd" clip-rule="evenodd" d="M990.5 353c-9.665 0-17.5 7.835-17.5 17.5s7.835 17.5 17.5 17.5c9.67 0 17.5-7.835 17.5-17.5s-7.83-17.5-17.5-17.5zm0 8a9.5 9.5 0 00-9.5 9.5 9.5 9.5 0 009.5 9.5 9.5 9.5 0 009.5-9.5 9.5 9.5 0 00-9.5-9.5z" fill="#EB840B"/><path d="M1461 189h-14m7 7v-14 14z" stroke="#EB840B" stroke-width="3" stroke-linecap="round" stroke-linejoin="round"/><path d="M666.04 35.502l-1.017-2.861c8.368-3.003 17.65-6.388 22.21-8.056-2.909-1.907-7.572-4.974-9.872-6.529l-2.657-1.797 3.078-.92c10.099-3.02 10.099-3.02 20.406-6.8l1.037 2.855c-9.216 3.381-10.261 3.764-17.482 5.931 4.025 2.67 9.615 6.326 9.685 6.372l2.533 1.657-2.846 1.044c-.133.048-13.479 4.944-25.075 9.104z" fill="#414042"/><path d="M160.983 250.387l-1.017-2.861c8.369-3.003 17.65-6.389 22.21-8.056-2.908-1.908-7.572-4.974-9.871-6.529l-2.658-1.798 3.078-.919c10.1-3.019 10.1-3.019 20.407-6.799l1.037 2.854c-9.216 3.381-10.261 3.764-17.482 5.931 4.024 2.669 9.615 6.326 9.685 6.372l2.533 1.656-2.847 1.044c-.133.049-13.479 4.945-25.075 9.105z" fill="#EB840B"/><path d="M1244.39 372.565l-2.51 1.697c-5-7.357-10.59-15.502-13.34-19.504-1.12 3.293-2.93 8.573-3.86 11.187l-1.08 3.022-1.66-2.752c-5.44-9.03-5.44-9.03-11.67-18.07l2.51-1.716c5.57 8.084 6.2 9.001 10.1 15.454 1.58-4.562 3.73-10.887 3.76-10.966l.97-2.866 1.72 2.497c.08.117 8.15 11.822 15.06 22.017z" fill="#414042"/></svg>