<svg width="28" height="28" viewBox="0 0 28 28" fill="none" xmlns="http://www.w3.org/2000/svg">
<path d="M0 13.8019C0 11.0722 0.821086 8.4037 2.35942 6.13399C3.89776 3.86427 6.08427 2.09525 8.64243 1.05061C11.2006 0.00598029 14.0155 -0.267344 16.7313 0.265206C19.447 0.797756 21.9416 2.11226 23.8995 4.04249C25.8574 5.97272 27.1908 8.43199 27.731 11.1093C28.2712 13.7866 27.9939 16.5617 26.9343 19.0837C25.8747 21.6057 24.0803 23.7612 21.778 25.2778C19.4757 26.7944 16.7689 27.6038 14 27.6038C10.287 27.6038 6.72601 26.1497 4.1005 23.5613C1.475 20.973 0 17.4624 0 13.8019ZM26.1333 13.8019C26.1333 11.4361 25.4217 9.12346 24.0885 7.15638C22.7553 5.18929 20.8603 3.65614 18.6432 2.75079C16.4261 1.84544 13.9865 1.60856 11.6329 2.0701C9.27927 2.53164 7.11731 3.67088 5.42044 5.34375C3.72356 7.01662 2.56797 9.14798 2.0998 11.4683C1.63164 13.7886 1.87192 16.1937 2.79026 18.3794C3.7086 20.5652 5.26376 22.4333 7.25908 23.7477C9.2544 25.062 11.6003 25.7636 14 25.7636C17.218 25.7636 20.3041 24.5033 22.5796 22.2601C24.855 20.0168 26.1333 16.9743 26.1333 13.8019Z" fill="#222B2A"/>
<path d="M10.3886 19.2171L15.5966 13.9998L10.3886 8.78247C10.2148 8.6076 10.1172 8.37105 10.1172 8.12447C10.1172 7.8779 10.2148 7.64135 10.3886 7.46647C10.5635 7.29264 10.8 7.19507 11.0466 7.19507C11.2932 7.19507 11.5297 7.29264 11.7046 7.46647L17.6406 13.4025C17.7979 13.5615 17.8861 13.7761 17.8861 13.9998C17.8861 14.2235 17.7979 14.4381 17.6406 14.5971L11.7046 20.5331C11.5297 20.707 11.2932 20.8045 11.0466 20.8045C10.8 20.8045 10.5635 20.707 10.3886 20.5331C10.2148 20.3583 10.1172 20.1217 10.1172 19.8751C10.1172 19.6286 10.2148 19.392 10.3886 19.2171Z" fill="#222B2A"/>
</svg>
