<svg width="21" height="23" viewBox="0 0 21 23" fill="none" xmlns="http://www.w3.org/2000/svg">
<path d="M7.04117 12.5129L13.8712 16.4929M13.8612 5.51293L7.04117 9.49293M19.4512 4.00293C19.4512 5.65978 18.108 7.00293 16.4512 7.00293C14.7943 7.00293 13.4512 5.65978 13.4512 4.00293C13.4512 2.34608 14.7943 1.00293 16.4512 1.00293C18.108 1.00293 19.4512 2.34608 19.4512 4.00293ZM7.45117 11.0029C7.45117 12.6598 6.10803 14.0029 4.45117 14.0029C2.79432 14.0029 1.45117 12.6598 1.45117 11.0029C1.45117 9.34608 2.79432 8.00293 4.45117 8.00293C6.10803 8.00293 7.45117 9.34608 7.45117 11.0029ZM19.4512 18.0029C19.4512 19.6598 18.108 21.0029 16.4512 21.0029C14.7943 21.0029 13.4512 19.6598 13.4512 18.0029C13.4512 16.3461 14.7943 15.0029 16.4512 15.0029C18.108 15.0029 19.4512 16.3461 19.4512 18.0029Z" stroke="#616161" stroke-width="2" stroke-linecap="round" stroke-linejoin="round"/>
</svg>
