<svg width="112" height="155" viewBox="0 0 112 155" fill="none" xmlns="http://www.w3.org/2000/svg">
<path d="M2.92032 67.9762L67.9742 2.92238L111.815 2.92238L2.92032 111.817L2.92032 67.9762Z" fill="#F2C94C"/>
<path d="M1.92032 66.9762L66.9742 1.92231L110.815 1.92232L1.92032 110.817L1.92032 66.9762Z" fill="#F5AA01"/>
<path d="M34.1456 66.4367L37.1882 63.3941L28.8759 55.0818L32.1695 51.7883L29.5033 49.1221L19.8736 58.7518L22.5398 61.418L25.8333 58.1244L34.1456 66.4367ZM47.0827 53.9388C50.4703 50.5511 50.4546 45.454 47.3023 42.3016C44.1185 39.1178 39.0841 39.1021 35.6964 42.4898C32.3088 45.8774 32.3245 50.9746 35.4769 54.127C38.6606 57.3107 43.695 57.3264 47.0827 53.9388ZM44.3694 51.1628C42.707 52.8252 40.1819 52.59 38.5979 51.0059C36.9825 49.3905 36.7472 46.9282 38.4097 45.2658C40.0878 43.5876 42.6129 43.8229 44.1969 45.4069C45.8123 47.0223 46.0476 49.4846 44.3694 51.1628ZM54.3764 46.2059L57.419 43.1633L54.2823 40.0266L55.7879 38.521C58.5168 35.7921 59.1442 32.4358 56.5564 29.848C54.0941 27.3857 50.879 27.7464 48.103 30.5224L43.3979 35.2274L54.3764 46.2059ZM51.8984 37.6427L48.9969 34.7413L50.4241 33.3141C51.522 32.2162 52.6826 32.0594 53.6236 33.0004C54.5175 33.8943 54.4234 35.1177 53.3413 36.1998L51.8984 37.6427Z" fill="black"/>
</svg>
