<?xml version="1.0" encoding="utf-8"?><svg width="25" height="25" fill="none" xmlns="http://www.w3.org/2000/svg" viewBox="0 0 25 25"><path d="M12.5 25C19.404 25 25 19.404 25 12.5S19.404 0 12.5 0 0 5.596 0 12.5 5.596 25 12.5 25z" fill="#DC4E41"/><path d="M4.352 13.06c-.044 2.151 1.437 4.203 3.475 4.873 1.92.645 4.279.162 5.556-1.482.933-1.151 1.145-2.687 1.044-4.121-1.644-.015-3.288-.01-4.93-.008-.002.586 0 1.17.003 1.755.985.027 1.969.014 2.953.034-.248.852-.814 1.644-1.673 1.952-1.659.73-3.775-.224-4.297-1.964-.63-1.666.402-3.677 2.104-4.161 1.056-.372 2.143.046 3.047.595.458-.428.886-.886 1.306-1.348-1.026-.86-2.345-1.386-3.7-1.27-2.66.032-4.989 2.488-4.888 5.145zM17.626 10.845c-.005.49-.01.982-.013 1.471-.492.005-.981.008-1.471.01v1.467c.49.002.982.005 1.471.01.005.49.005.979.01 1.471.487 0 .977-.002 1.467 0 .003-.492.005-.981.01-1.474l1.471-.007v-1.467c-.49-.002-.981-.005-1.471-.01-.003-.49-.008-.982-.01-1.471h-1.464z" fill="#DC4E41"/><path d="M4.352 13.06c-.101-2.658 2.227-5.114 4.887-5.146 1.356-.116 2.675.41 3.701 1.27-.42.463-.849.92-1.306 1.348-.904-.549-1.991-.967-3.047-.595-1.703.485-2.734 2.495-2.104 4.16.522 1.74 2.638 2.696 4.297 1.965.858-.308 1.425-1.1 1.673-1.952-.984-.02-1.969-.007-2.953-.034-.002-.586-.005-1.17-.002-1.755 1.641-.002 3.285-.007 4.929.008.1 1.434-.111 2.97-1.044 4.121-1.277 1.644-3.637 2.127-5.557 1.482-2.037-.67-3.518-2.722-3.474-4.872zM17.626 10.845h1.464l.01 1.471c.49.005.982.008 1.471.01v1.467L19.1 13.8c-.005.492-.008.982-.01 1.474-.49-.002-.98 0-1.467 0-.005-.492-.005-.982-.01-1.471-.49-.006-.981-.008-1.471-.01v-1.467c.49-.003.98-.005 1.471-.01.003-.49.008-.982.013-1.471z" fill="#fff"/></svg>