<?xml version="1.0" encoding="utf-8"?><svg width="116" height="32" fill="none" xmlns="http://www.w3.org/2000/svg" viewBox="0 0 116 32"><g clip-path="url(#arclip0)"><path d="M93.755 31.096c8.034 0 14.547-6.514 14.547-14.548C108.302 8.513 101.789 2 93.755 2 85.72 2 79.207 8.513 79.207 16.548c0 8.034 6.513 14.548 14.548 14.548z" fill="#F7A700"/><path d="M71.2 15.608c-1.7 0-2.708-.873-2.708-1.947 0-1.254 1.141-1.97 2.708-1.97 1.567 0 2.708.716 2.708 1.925 0 1.141-1.007 1.992-2.708 1.992zm0-6.647c-1.365 0-2.238-.829-2.238-1.925 0-1.007.828-1.858 2.238-1.858 1.41 0 2.238.873 2.238 1.835 0 1.142-.873 1.948-2.238 1.948zm0 9.49c3.47 0 6.043-1.702 6.043-4.611 0-1.903-.94-2.91-2.53-3.738 1.21-.739 1.993-1.746 1.993-3.424 0-2.462-2.194-4.342-5.506-4.342-3.312 0-5.506 1.902-5.506 4.297 0 1.723.784 2.73 1.992 3.469-1.656.76-2.529 1.88-2.529 3.782 0 2.776 2.574 4.566 6.043 4.566zm-19.897-.225h11.594V15.25H56.07l2.552-1.97c2.775-2.148 4.118-3.447 4.118-6.065 0-2.977-2.149-4.88-5.394-4.88-2.797 0-4.297 1.142-5.841 3.246l2.417 1.947c1.164-1.432 1.992-2.104 3.2-2.104 1.231 0 2.104.717 2.104 2.037 0 1.298-.76 2.149-2.708 3.76l-5.215 4.275v2.73zm-8.505-2.663c-1.88 0-3.155-1.544-3.155-3.312 0-1.813 1.163-3.313 3.11-3.313 1.88 0 3.156 1.544 3.156 3.313 0 1.813-1.163 3.312-3.11 3.312zm-.044 2.932c3.737 0 6.513-2.798 6.513-6.244 0-3.492-2.753-6.245-6.469-6.245-3.737 0-6.513 2.798-6.513 6.245 0 3.491 2.753 6.244 6.469 6.244zm-10.8-.067c1.142 0 1.97-.269 2.686-.694v-2.73a3.46 3.46 0 01-1.678.425c-.761 0-1.097-.38-1.097-1.164V9.14h2.82V6.23h-2.82V3.164h-3.402V6.23h-1.432v2.91h1.432v5.684c0 2.776 1.41 3.604 3.492 3.604zm-14.01.022c1.723 0 2.73-.918 3.514-1.925v1.701h3.402V6.23h-3.402v6.692c0 1.611-.828 2.44-2.126 2.44s-2.06-.829-2.06-2.44V6.23h-3.401v7.766c0 2.753 1.5 4.454 4.073 4.454zM5.148 16.1c-1.097 0-1.858-.537-1.858-1.455 0-1.119.895-1.7 2.35-1.7.828 0 1.59.178 2.171.447v.604c0 1.231-1.074 2.104-2.663 2.104zm-1.03 2.35c1.656 0 2.798-.604 3.626-1.522v1.298h3.29v-6.96c0-1.612-.403-2.932-1.298-3.827-.85-.85-2.194-1.343-4.051-1.343-2.037 0-3.335.38-4.655.962l.85 2.596c1.097-.403 2.014-.649 3.312-.649 1.701 0 2.574.784 2.574 2.194v.201a8.523 8.523 0 00-2.932-.492C1.992 10.908 0 12.116 0 14.735c0 2.417 1.858 3.715 4.118 3.715zM110.412 18.45c2.596 0 4.588-1.208 4.588-3.872 0-2.238-1.947-3.044-3.626-3.603-1.298-.448-2.439-.761-2.439-1.433 0-.514.425-.872 1.253-.872.873 0 2.059.425 3.245 1.119l1.298-2.35c-1.298-.873-2.954-1.388-4.476-1.388-2.417 0-4.387 1.365-4.387 3.805 0 2.372 1.903 3.155 3.581 3.648 1.321.403 2.485.649 2.485 1.388 0 .582-.448.94-1.433.94-1.119 0-2.484-.493-3.782-1.433l-1.455 2.238c1.589 1.254 3.469 1.813 5.148 1.813zm-15.18-7.162c.268-1.544 1.186-2.551 2.596-2.551 1.432 0 2.328 1.03 2.529 2.551h-5.125zm2.932 7.207c2.171 0 3.782-.85 4.901-2.238l-1.947-1.724c-.94.873-1.768 1.231-2.91 1.231-1.521 0-2.596-.805-2.931-2.35h8.348c.022-.313.045-.626.045-.895 0-3.402-1.836-6.513-5.842-6.513-3.491 0-5.931 2.82-5.931 6.245 0 3.715 2.663 6.244 6.267 6.244z" fill="#000"/></g><defs><clipPath id="arclip0"><path fill="#fff" d="M0 0h116v32H0z"/></clipPath></defs></svg>