<?xml version="1.0" encoding="utf-8"?><svg width="24" height="24" fill="none" xmlns="http://www.w3.org/2000/svg" viewBox="0 0 24 24"><path d="M23 12.444a9.311 9.311 0 01-1 4.223 9.445 9.445 0 01-8.444 5.222 9.311 9.311 0 01-4.223-1L3 23l2.111-6.333a9.311 9.311 0 01-1-4.223A9.445 9.445 0 019.333 4a9.31 9.31 0 014.223-1h.555A9.422 9.422 0 0123 11.889v.556z" stroke="#747474" stroke-width="2" stroke-linecap="round" stroke-linejoin="round"/><path d="M23 12.444a9.311 9.311 0 01-1 4.223 9.445 9.445 0 01-8.444 5.222 9.311 9.311 0 01-4.223-1L3 23l2.111-6.333a9.311 9.311 0 01-1-4.223A9.445 9.445 0 019.333 4a9.31 9.31 0 014.223-1h.555A9.422 9.422 0 0123 11.889v.556z" fill="#F5AA01" stroke="#747474" stroke-width="2" stroke-linecap="round" stroke-linejoin="round"/></svg>