<?xml version="1.0" encoding="utf-8"?><svg width="25" height="25" fill="none" xmlns="http://www.w3.org/2000/svg" viewBox="0 0 25 25"><path d="M12.5 25C19.404 25 25 19.404 25 12.5S19.404 0 12.5 0 0 5.596 0 12.5 5.596 25 12.5 25z" fill="#55ACEE"/><path d="M20.157 8.983a5.962 5.962 0 01-1.716.47 2.996 2.996 0 001.314-1.652 5.982 5.982 0 01-1.898.724 2.988 2.988 0 00-5.091 2.726A8.482 8.482 0 016.607 8.13a2.988 2.988 0 00.925 3.99c-.49-.016-.951-.15-1.354-.375v.038a2.99 2.99 0 002.397 2.93 2.979 2.979 0 01-1.35.051 2.991 2.991 0 002.792 2.075 5.995 5.995 0 01-4.424 1.237 8.452 8.452 0 004.58 1.343c5.496 0 8.501-4.553 8.501-8.502 0-.13-.003-.258-.008-.386a6.058 6.058 0 001.49-1.547z" fill="#F1F2F2"/></svg>