<svg width="29" height="29" viewBox="0 0 29 29" fill="none" xmlns="http://www.w3.org/2000/svg">
<path d="M28 14.5C28 21.9558 21.9558 28 14.5 28M28 14.5C28 7.04416 21.9558 1 14.5 1M28 14.5H22.6M14.5 28C7.04416 28 1 21.9558 1 14.5M14.5 28V22.6M1 14.5C1 7.04416 7.04416 1 14.5 1M1 14.5H6.4M14.5 1V6.4" stroke="#616161" stroke-width="2" stroke-linecap="round" stroke-linejoin="round"/>
<path d="M14.5 28C21.9558 28 28 21.9558 28 14.5C28 7.04416 21.9558 1 14.5 1C7.04416 1 1 7.04416 1 14.5C1 21.9558 7.04416 28 14.5 28Z" fill="#F5AA01"/>
<path d="M28 14.5C28 21.9558 21.9558 28 14.5 28M28 14.5C28 7.04416 21.9558 1 14.5 1M28 14.5H22.6M14.5 28C7.04416 28 1 21.9558 1 14.5M14.5 28V22.6M1 14.5C1 7.04416 7.04416 1 14.5 1M1 14.5H6.4M14.5 1V6.4" stroke="#616161" stroke-width="2" stroke-linecap="round" stroke-linejoin="round"/>
</svg>
