<svg width="20" height="20" viewBox="0 0 20 20" fill="none" xmlns="http://www.w3.org/2000/svg">
<path fill-rule="evenodd" clip-rule="evenodd" d="M10.4741 16.4598C10.187 16.2624 9.81297 16.2624 9.52586 16.4598L4.59695 19.8476C3.89851 20.3277 3.01742 19.5906 3.32918 18.7871L5.46858 13.2727C5.61869 12.8858 5.4854 12.4433 5.14908 12.2121L0.382204 8.93567C-0.321474 8.45201 0.0106287 7.32113 0.856344 7.32113H6.00222C6.35174 7.32113 6.66604 7.10174 6.79585 6.76715L9.20637 0.553979C9.49293 -0.184659 10.5071 -0.18466 10.7936 0.553978L13.2041 6.76715C13.334 7.10174 13.6483 7.32113 13.9978 7.32113H19.1437C19.9894 7.32113 20.3215 8.45201 19.6178 8.93567L14.8509 12.2121C14.5146 12.4433 14.3813 12.8858 14.5314 13.2727L16.6708 18.7871C16.9826 19.5906 16.1015 20.3277 15.403 19.8476L10.4741 16.4598Z" fill="#F5AA01"/>
</svg>
