<svg width="32" height="25" viewBox="0 0 32 25" fill="none" xmlns="http://www.w3.org/2000/svg"><path d="M1 12.527S6.393 1.741 15.83 1.741c9.439 0 14.832 10.786 14.832 10.786S25.269 23.313 15.83 23.313C6.393 23.313 1 12.527 1 12.527z" stroke="#616161" stroke-width="2" stroke-linecap="round" stroke-linejoin="round"/><path d="M15.83 16.572a4.045 4.045 0 100-8.09 4.045 4.045 0 000 8.09z" stroke="#616161" stroke-width="2" stroke-linecap="round" stroke-linejoin="round"/><path d="M1 12.527S6.393 1.741 15.83 1.741c9.439 0 14.832 10.786 14.832 10.786S25.269 23.313 15.83 23.313C6.393 23.313 1 12.527 1 12.527z" fill="#F5AA01"/><path d="M15.83 16.572a4.045 4.045 0 100-8.09 4.045 4.045 0 000 8.09z" fill="#F5AA01"/><path d="M1 12.527S6.393 1.741 15.83 1.741c9.439 0 14.832 10.786 14.832 10.786S25.269 23.313 15.83 23.313C6.393 23.313 1 12.527 1 12.527z" stroke="#616161" stroke-width="2" stroke-linecap="round" stroke-linejoin="round"/><path d="M15.83 16.572a4.045 4.045 0 100-8.09 4.045 4.045 0 000 8.09z" stroke="#616161" stroke-width="2" stroke-linecap="round" stroke-linejoin="round"/></svg>