<svg width="29" height="30" viewBox="0 0 29 30" fill="none" xmlns="http://www.w3.org/2000/svg"><path d="M28 14.764c0 7.456-6.044 13.5-13.5 13.5m13.5-13.5c0-7.456-6.044-13.5-13.5-13.5m13.5 13.5h-5.4m-8.1 13.5c-7.456 0-13.5-6.044-13.5-13.5m13.5 13.5v-5.4M1 14.764c0-7.456 6.044-13.5 13.5-13.5M1 14.764h5.4m8.1-13.5v5.4" stroke="#616161" stroke-width="2" stroke-linecap="round" stroke-linejoin="round"/><path d="M14.5 28.264c7.456 0 13.5-6.044 13.5-13.5s-6.044-13.5-13.5-13.5S1 7.308 1 14.764s6.044 13.5 13.5 13.5z" fill="#F5AA01"/><path d="M28 14.764c0 7.456-6.044 13.5-13.5 13.5m13.5-13.5c0-7.456-6.044-13.5-13.5-13.5m13.5 13.5h-5.4m-8.1 13.5c-7.456 0-13.5-6.044-13.5-13.5m13.5 13.5v-5.4M1 14.764c0-7.456 6.044-13.5 13.5-13.5M1 14.764h5.4m8.1-13.5v5.4" stroke="#616161" stroke-width="2" stroke-linecap="round" stroke-linejoin="round"/></svg>