<svg width="42" height="24" viewBox="0 0 42 24" fill="none" xmlns="http://www.w3.org/2000/svg">
<path d="M30.1408 16.8494C28.1435 16.8494 26.5249 18.4535 26.5249 20.4246C26.5249 22.4 28.1435 23.9999 30.1408 23.9999C32.1386 23.9999 33.7546 22.3997 33.7546 20.4246C33.7546 18.4536 32.1387 16.8494 30.1408 16.8494ZM30.1408 22.08C29.218 22.08 28.4717 21.341 28.4717 20.4247C28.4717 19.512 29.218 18.7735 30.1408 18.7735C31.0635 18.7735 31.8106 19.512 31.8106 20.4247C31.8108 21.341 31.0635 22.08 30.1408 22.08Z" fill="#616161"/>
<path d="M6.032 16.8494C4.03455 16.8494 2.41748 18.4535 2.41748 20.4246C2.41748 22.4 4.03455 23.9999 6.032 23.9999C8.02543 23.9999 9.64652 22.3997 9.64652 20.4246C9.64652 18.4536 8.02543 16.8494 6.032 16.8494ZM6.032 22.08C5.10727 22.08 4.35841 21.341 4.35841 20.4247C4.35841 19.512 5.10727 18.7735 6.032 18.7735C6.95263 18.7735 7.7019 19.512 7.7019 20.4247C7.7019 21.341 6.95263 22.08 6.032 22.08Z" fill="#616161"/>
<path d="M41.309 0H11.0808C10.7017 0 10.3935 0.304092 10.3935 0.679987V4.58685C10.3935 4.95001 10.6807 5.16729 10.8646 5.16729H17.1935C17.437 5.16729 17.6428 5.30181 17.765 5.49499L16.7646 6.46714C16.6401 6.28094 16.441 6.15072 16.1994 6.15072H10.3935V6.22634H9.79652C9.41459 6.22634 9.10919 6.53026 9.10919 6.90932L6.69871 9.42165L2.06603 9.98732C1.68212 9.98732 1.37615 10.2876 1.37615 10.6673L0.917268 13.1045V15.5847C0.917268 15.8855 0.715882 16.1425 0.435173 16.229L0 19.0893C0 19.4647 0.308272 19.7726 0.687172 19.7726H1.08535V19.832H1.54259C1.59788 19.3931 1.71067 18.9704 1.87202 18.58C2.58495 17.011 4.17463 15.9131 6.03172 15.9131C6.64277 15.9131 7.22642 16.0358 7.75789 16.2528L7.80129 16.2096C9.15767 16.8691 10.1433 18.216 10.3415 19.8319H25.4846C25.7819 17.5483 27.7529 15.7785 30.1411 15.7785C32.5296 15.7785 34.4987 17.5483 34.7939 19.8319H41.3093C41.6931 19.8319 42 19.5275 42 19.1477V0.679744C41.9998 0.304092 41.6929 0 41.309 0ZM15.3986 9.41037C15.3986 9.78927 15.1066 10.0982 14.749 10.0982H9.33871C8.95563 10.0982 8.64785 9.79357 8.64785 9.41833L10.0259 7.93665C10.0259 7.55743 10.3335 7.25747 10.7137 7.25747H14.749C15.1066 7.25747 15.3986 7.56189 15.3986 7.94062V9.41037Z" fill="#616161"/>
</svg>
