<svg width="237" height="138" viewBox="0 0 237 138" fill="none" xmlns="http://www.w3.org/2000/svg">
<rect width="237" height="137.932" fill="#E7E7E7"/>
<rect x="219.028" y="88.9594" width="7.63792" height="7.63792" fill="#AAAAAA"/>
<rect x="219.028" y="98.3945" width="7.63792" height="7.63792" fill="#AAAAAA"/>
<rect x="219.028" y="107.83" width="7.63792" height="7.63792" fill="#AAAAAA"/>
<rect x="58.4077" y="88.7349" width="64.0237" height="7.86256" fill="#AAAAAA"/>
<rect opacity="0.6" x="58.4072" y="102.887" width="15.5005" height="6.29005" fill="#AAAAAA"/>
<rect opacity="0.6" x="77.0532" y="102.887" width="15.5005" height="6.29005" fill="#AAAAAA"/>
<rect opacity="0.6" x="95.6982" y="102.887" width="15.5005" height="6.29005" fill="#AAAAAA"/>
<rect x="128.497" y="88.7349" width="30.1024" height="7.86256" fill="#AAAAAA"/>
<rect x="161.744" y="88.7349" width="24.037" height="7.86256" fill="#AAAAAA"/>
<rect x="188.926" y="88.7349" width="24.037" height="7.86256" fill="#AAAAAA"/>
<rect x="219.029" y="47.4" width="7.63792" height="7.63792" fill="#AAAAAA"/>
<rect x="219.029" y="56.8351" width="7.63792" height="7.63792" fill="#AAAAAA"/>
<rect x="219.029" y="66.2703" width="7.63792" height="7.63792" fill="#AAAAAA"/>
<rect x="10.3345" y="44.9288" width="44.9289" height="36.1678" fill="#AAAAAA"/>
<rect x="58.4082" y="47.1755" width="64.0237" height="7.86256" fill="#AAAAAA"/>
<rect opacity="0.6" x="58.4082" y="61.328" width="15.5005" height="6.29005" fill="#AAAAAA"/>
<rect opacity="0.6" x="77.0542" y="61.328" width="15.5005" height="6.29005" fill="#AAAAAA"/>
<rect opacity="0.6" x="95.6992" y="61.328" width="15.5005" height="6.29005" fill="#AAAAAA"/>
<rect x="128.498" y="47.1755" width="30.1024" height="7.86256" fill="#AAAAAA"/>
<rect x="161.745" y="47.1755" width="24.037" height="7.86256" fill="#AAAAAA"/>
<rect x="188.927" y="47.1755" width="24.037" height="7.86256" fill="#AAAAAA"/>
<rect x="219.029" y="5.84113" width="7.63792" height="7.63792" fill="#AAAAAA"/>
<rect x="219.029" y="15.2763" width="7.63792" height="7.63792" fill="#AAAAAA"/>
<rect x="219.029" y="24.7114" width="7.63792" height="7.63792" fill="#AAAAAA"/>
<rect x="10.3345" y="3.36957" width="44.9289" height="36.1678" fill="#AAAAAA"/>
<rect x="58.4082" y="5.61664" width="64.0237" height="7.86256" fill="#AAAAAA"/>
<rect opacity="0.6" x="58.4082" y="19.7692" width="15.5005" height="6.29005" fill="#AAAAAA"/>
<rect opacity="0.6" x="77.0542" y="19.7692" width="15.5005" height="6.29005" fill="#AAAAAA"/>
<rect opacity="0.6" x="95.6992" y="19.7692" width="15.5005" height="6.29005" fill="#AAAAAA"/>
<rect x="128.498" y="5.61664" width="30.1024" height="7.86256" fill="#AAAAAA"/>
<rect x="161.745" y="5.61664" width="24.037" height="7.86256" fill="#AAAAAA"/>
<rect x="188.927" y="5.61664" width="24.037" height="7.86256" fill="#AAAAAA"/>
<rect x="4.04346" y="44.4797" width="227.34" height="88.51" fill="#EB840B"/>
<rect x="11.4346" y="63.901" width="49.6682" height="36.4142" fill="white" stroke="white" stroke-width="2"/>
<rect x="9.43457" y="103.562" width="51.6682" height="6.0654" fill="white"/>
<rect x="9.43555" y="50.7701" width="51.6682" height="6.0654" fill="white"/>
<rect x="9.43457" y="120.41" width="24.2616" height="6.0654" fill="white"/>
<rect opacity="0.6" x="9.43457" y="115.693" width="51.6682" height="3.36967" fill="white"/>
<rect opacity="0.6" x="9.43457" y="110.975" width="51.6682" height="3.36967" fill="white"/>
<rect x="66.6973" y="63.9005" width="49.6682" height="36.4142" fill="white" stroke="white" stroke-width="2"/>
<rect x="64.6973" y="103.561" width="51.6682" height="6.0654" fill="white"/>
<rect x="64.6973" y="120.41" width="24.2616" height="6.0654" fill="white"/>
<rect opacity="0.6" x="64.6973" y="115.692" width="51.6682" height="3.36967" fill="white"/>
<rect opacity="0.6" x="64.6973" y="110.975" width="51.6682" height="3.36967" fill="white"/>
<rect x="121.96" y="63.9005" width="49.6682" height="36.4142" fill="white" stroke="white" stroke-width="2"/>
<rect x="119.96" y="103.561" width="51.6682" height="6.0654" fill="white"/>
<rect x="119.96" y="120.41" width="24.2616" height="6.0654" fill="white"/>
<rect opacity="0.6" x="119.96" y="115.692" width="51.6682" height="3.36967" fill="white"/>
<rect opacity="0.6" x="119.96" y="110.975" width="51.6682" height="3.36967" fill="white"/>
<rect x="177.223" y="63.9005" width="49.6682" height="36.4142" fill="white" stroke="white" stroke-width="2"/>
<rect x="175.223" y="103.561" width="51.6682" height="6.0654" fill="white"/>
<rect x="175.223" y="120.41" width="24.2616" height="6.0654" fill="white"/>
<rect opacity="0.6" x="175.223" y="115.692" width="51.6682" height="3.36967" fill="white"/>
<rect opacity="0.6" x="175.223" y="110.975" width="51.6682" height="3.36967" fill="white"/>
</svg>
