<svg width="237" height="126" viewBox="0 0 237 126" fill="none" xmlns="http://www.w3.org/2000/svg">
<rect width="236.613" height="125.82" fill="#E7E7E7"/>
<rect opacity="0.9" x="5.38281" y="19.0634" width="225.848" height="59.6579" fill="#EB840B"/>
<rect x="218.672" y="24.2224" width="7.62545" height="7.62545" fill="white"/>
<rect x="218.672" y="33.6417" width="7.62545" height="7.62545" fill="white"/>
<rect x="218.672" y="43.061" width="7.62545" height="7.62545" fill="white"/>
<rect x="10.3164" y="21.7545" width="44.8556" height="36.1087" fill="white"/>
<rect x="10.3164" y="58.7608" width="21.9792" height="17.2694" fill="white"/>
<rect x="33.1929" y="58.7608" width="21.9792" height="17.2694" fill="white"/>
<rect x="58.312" y="23.9977" width="63.9192" height="7.84973" fill="white"/>
<rect opacity="0.6" x="58.312" y="38.1273" width="15.4752" height="6.27978" fill="white"/>
<rect opacity="0.6" x="76.9272" y="38.1273" width="15.4752" height="6.27978" fill="white"/>
<rect opacity="0.6" x="95.5425" y="38.1273" width="15.4752" height="6.27978" fill="white"/>
<rect x="58.312" y="63.6945" width="15.4752" height="6.27978" fill="white"/>
<rect x="76.9272" y="63.6945" width="51.3596" height="6.27978" fill="white"/>
<rect x="131.428" y="63.6945" width="28.9319" height="6.27978" fill="white"/>
<rect x="185.478" y="63.6945" width="40.8186" height="9.41967" fill="white"/>
<rect x="128.287" y="23.9977" width="30.0532" height="7.84973" fill="white"/>
<rect x="161.479" y="23.9977" width="23.9977" height="7.84973" fill="white"/>
<rect x="188.618" y="23.9977" width="23.9977" height="7.84973" fill="white"/>
<rect x="218.671" y="84.7772" width="7.62545" height="7.62545" fill="#AAAAAA"/>
<rect x="218.671" y="94.1965" width="7.62545" height="7.62545" fill="#AAAAAA"/>
<rect x="218.671" y="103.616" width="7.62545" height="7.62545" fill="#AAAAAA"/>
<rect x="10.3164" y="82.3097" width="44.8556" height="36.1087" fill="#AAAAAA"/>
<rect x="58.313" y="84.5524" width="63.9192" height="7.84973" fill="#AAAAAA"/>
<rect opacity="0.6" x="58.313" y="98.6828" width="15.4752" height="6.27978" fill="#AAAAAA"/>
<rect opacity="0.6" x="76.9263" y="98.6828" width="15.4752" height="6.27978" fill="#AAAAAA"/>
<rect opacity="0.6" x="95.5415" y="98.6828" width="15.4752" height="6.27978" fill="#AAAAAA"/>
<rect x="128.287" y="84.5524" width="30.0532" height="7.84973" fill="#AAAAAA"/>
<rect x="161.479" y="84.5524" width="23.9977" height="7.84973" fill="#AAAAAA"/>
<rect x="188.618" y="84.5524" width="23.9977" height="7.84973" fill="#AAAAAA"/>
<rect x="10.3169" y="8.74622" width="43.0614" height="7.84973" fill="#AAAAAA"/>
<rect x="58.313" y="8.74622" width="43.0614" height="7.84973" fill="#AAAAAA"/>
<rect x="106.755" y="8.74622" width="21.5307" height="7.84973" fill="#AAAAAA"/>
<rect x="208.579" y="8.74622" width="7.84973" height="7.84973" fill="#C4C4C4"/>
<rect x="218.671" y="8.74622" width="7.84973" height="7.84973" fill="#C4C4C4"/>
</svg>
