<svg width="29" height="29" viewBox="0 0 29 29" fill="none" xmlns="http://www.w3.org/2000/svg"><path d="M19.9 14.5l-5.4-5.4m0 0l-5.4 5.4m5.4-5.4v10.8M28 14.5C28 21.956 21.956 28 14.5 28S1 21.956 1 14.5 7.044 1 14.5 1 28 7.044 28 14.5z" stroke="#616161" stroke-width="2" stroke-linecap="round" stroke-linejoin="round"/><path d="M14.5 28C21.956 28 28 21.956 28 14.5S21.956 1 14.5 1 1 7.044 1 14.5 7.044 28 14.5 28z" fill="#F5AA01"/><path d="M19.9 14.5l-5.4-5.4-5.4 5.4" fill="#F5AA01"/><path d="M19.9 14.5l-5.4-5.4m0 0l-5.4 5.4m5.4-5.4v10.8M28 14.5C28 21.956 21.956 28 14.5 28S1 21.956 1 14.5 7.044 1 14.5 1 28 7.044 28 14.5z" stroke="#616161" stroke-width="2" stroke-linecap="round" stroke-linejoin="round"/></svg>