<svg width="29" height="29" viewBox="0 0 29 29" fill="none" xmlns="http://www.w3.org/2000/svg"><path d="M28 14.5C28 21.956 21.956 28 14.5 28M28 14.5C28 7.044 21.956 1 14.5 1M28 14.5h-5.4M14.5 28C7.044 28 1 21.956 1 14.5M14.5 28v-5.4M1 14.5C1 7.044 7.044 1 14.5 1M1 14.5h5.4M14.5 1v5.4" stroke="#616161" stroke-width="2" stroke-linecap="round" stroke-linejoin="round"/><path d="M14.5 28C21.956 28 28 21.956 28 14.5S21.956 1 14.5 1 1 7.044 1 14.5 7.044 28 14.5 28z" fill="#F5AA01"/><path d="M28 14.5C28 21.956 21.956 28 14.5 28M28 14.5C28 7.044 21.956 1 14.5 1M28 14.5h-5.4M14.5 28C7.044 28 1 21.956 1 14.5M14.5 28v-5.4M1 14.5C1 7.044 7.044 1 14.5 1M1 14.5h5.4M14.5 1v5.4" stroke="#616161" stroke-width="2" stroke-linecap="round" stroke-linejoin="round"/></svg>