<svg width="32" height="24" viewBox="0 0 32 24" fill="none" xmlns="http://www.w3.org/2000/svg">
<path d="M1 11.7861C1 11.7861 6.39303 1 15.8308 1C25.2687 1 30.6617 11.7861 30.6617 11.7861C30.6617 11.7861 25.2687 22.5721 15.8308 22.5721C6.39303 22.5721 1 11.7861 1 11.7861Z" stroke="#616161" stroke-width="2" stroke-linecap="round" stroke-linejoin="round"/>
<path d="M15.8308 15.8308C18.0647 15.8308 19.8756 14.0199 19.8756 11.7861C19.8756 9.5522 18.0647 7.74129 15.8308 7.74129C13.597 7.74129 11.7861 9.5522 11.7861 11.7861C11.7861 14.0199 13.597 15.8308 15.8308 15.8308Z" stroke="#616161" stroke-width="2" stroke-linecap="round" stroke-linejoin="round"/>
<path d="M1 11.7861C1 11.7861 6.39303 1 15.8308 1C25.2687 1 30.6617 11.7861 30.6617 11.7861C30.6617 11.7861 25.2687 22.5721 15.8308 22.5721C6.39303 22.5721 1 11.7861 1 11.7861Z" fill="#F5AA01"/>
<path d="M15.8308 15.8308C18.0647 15.8308 19.8756 14.0199 19.8756 11.7861C19.8756 9.5522 18.0647 7.74129 15.8308 7.74129C13.597 7.74129 11.7861 9.5522 11.7861 11.7861C11.7861 14.0199 13.597 15.8308 15.8308 15.8308Z" fill="#F5AA01"/>
<path d="M1 11.7861C1 11.7861 6.39303 1 15.8308 1C25.2687 1 30.6617 11.7861 30.6617 11.7861C30.6617 11.7861 25.2687 22.5721 15.8308 22.5721C6.39303 22.5721 1 11.7861 1 11.7861Z" stroke="#616161" stroke-width="2" stroke-linecap="round" stroke-linejoin="round"/>
<path d="M15.8308 15.8308C18.0647 15.8308 19.8756 14.0199 19.8756 11.7861C19.8756 9.5522 18.0647 7.74129 15.8308 7.74129C13.597 7.74129 11.7861 9.5522 11.7861 11.7861C11.7861 14.0199 13.597 15.8308 15.8308 15.8308Z" stroke="#616161" stroke-width="2" stroke-linecap="round" stroke-linejoin="round"/>
</svg>
