<svg width="237" height="127" viewBox="0 0 237 127" fill="none" xmlns="http://www.w3.org/2000/svg">
<rect width="237" height="126.026" fill="#E7E7E7"/>
<rect x="219.027" y="88.9592" width="7.63792" height="7.63792" fill="#AAAAAA"/>
<rect x="219.027" y="98.394" width="7.63792" height="7.63792" fill="#AAAAAA"/>
<rect x="219.027" y="107.83" width="7.63792" height="7.63792" fill="#AAAAAA"/>
<rect x="10.3335" y="86.4883" width="44.9289" height="36.1678" fill="#AAAAAA"/>
<rect x="58.4072" y="88.7343" width="64.0237" height="7.86256" fill="#AAAAAA"/>
<rect opacity="0.6" x="58.4072" y="102.887" width="15.5005" height="6.29005" fill="#AAAAAA"/>
<rect opacity="0.6" x="77.0532" y="102.887" width="15.5005" height="6.29005" fill="#AAAAAA"/>
<rect opacity="0.6" x="95.6987" y="102.887" width="15.5005" height="6.29005" fill="#AAAAAA"/>
<rect x="128.496" y="88.7343" width="30.1024" height="7.86256" fill="#AAAAAA"/>
<rect x="161.743" y="88.7343" width="24.037" height="7.86256" fill="#AAAAAA"/>
<rect x="188.925" y="88.7343" width="24.037" height="7.86256" fill="#AAAAAA"/>
<rect x="219.027" y="47.4009" width="7.63792" height="7.63792" fill="#AAAAAA"/>
<rect x="219.027" y="56.8357" width="7.63792" height="7.63792" fill="#AAAAAA"/>
<rect x="219.027" y="66.2705" width="7.63792" height="7.63792" fill="#AAAAAA"/>
<rect x="10.3335" y="44.9289" width="44.9289" height="36.1678" fill="#AAAAAA"/>
<rect x="58.4072" y="47.176" width="64.0237" height="7.86256" fill="#AAAAAA"/>
<rect opacity="0.6" x="58.4072" y="61.3287" width="15.5005" height="6.29005" fill="#AAAAAA"/>
<rect opacity="0.6" x="77.0532" y="61.3287" width="15.5005" height="6.29005" fill="#AAAAAA"/>
<rect opacity="0.6" x="95.6987" y="61.3287" width="15.5005" height="6.29005" fill="#AAAAAA"/>
<rect x="128.496" y="47.176" width="30.1024" height="7.86256" fill="#AAAAAA"/>
<rect x="161.743" y="47.176" width="24.037" height="7.86256" fill="#AAAAAA"/>
<rect x="188.925" y="47.176" width="24.037" height="7.86256" fill="#AAAAAA"/>
<rect x="219.027" y="5.84167" width="7.63792" height="7.63792" fill="#AAAAAA"/>
<rect x="219.027" y="15.2765" width="7.63792" height="7.63792" fill="#AAAAAA"/>
<rect x="219.027" y="24.7113" width="7.63792" height="7.63792" fill="#AAAAAA"/>
<rect x="10.3335" y="3.36951" width="44.9289" height="36.1678" fill="#AAAAAA"/>
<rect x="58.4072" y="5.61682" width="64.0237" height="7.86256" fill="#AAAAAA"/>
<rect opacity="0.6" x="58.4072" y="19.7695" width="15.5005" height="6.29005" fill="#AAAAAA"/>
<rect opacity="0.6" x="77.0532" y="19.7695" width="15.5005" height="6.29005" fill="#AAAAAA"/>
<rect opacity="0.6" x="95.6987" y="19.7695" width="15.5005" height="6.29005" fill="#AAAAAA"/>
<rect x="128.496" y="5.61682" width="30.1024" height="7.86256" fill="#AAAAAA"/>
<rect x="161.743" y="5.61682" width="24.037" height="7.86256" fill="#AAAAAA"/>
<rect x="188.925" y="5.61682" width="24.037" height="7.86256" fill="#AAAAAA"/>
<rect x="5.04395" y="42.5594" width="226.913" height="40.9071" stroke="#EB840B" stroke-width="2"/>
</svg>
