<svg width="26" height="15" viewBox="0 0 26 15" fill="none" xmlns="http://www.w3.org/2000/svg">
<path d="M10.05 4.05885V0.818316H21.9677V1.73483M10.05 4.05885H7.91089C7.28405 4.16796 6.02097 4.89026 5.98336 6.90659C5.94575 8.92292 5.96769 10.3217 5.98336 10.769C5.95985 10.9763 5.7859 11.391 5.27816 11.391C4.77042 11.391 2.2145 11.391 1 11.391V13.9768H5.27816C6.18707 14.1187 8.0049 13.6757 8.0049 10.769C8.0049 10.2191 8.0049 8.35773 8.0049 7.49577C8.04407 7.29938 8.20235 6.90659 8.52204 6.90659C8.84172 6.90659 9.67386 6.90659 10.05 6.90659M10.05 4.05885V6.90659M10.05 6.90659V10.2126H21.9677V4.5171M21.9677 1.73483H25V4.5171H21.9677M21.9677 1.73483V4.5171M21.9677 10.9982V0M10.05 10.9982V0" stroke="#616161"/>
</svg>
