<svg width="42" height="25" viewBox="0 0 42 25" fill="none" xmlns="http://www.w3.org/2000/svg"><path d="M18.347 17.71c-1.003 0-1.804.36-2.506 1.027-.651.668-1.002 1.591-1.002 2.618s.3 1.9 1.002 2.618c.702.668 1.504 1.027 2.506 1.027 1.002 0 1.804-.308 2.505-1.027.652-.667 1.003-1.591 1.003-2.618s-.301-1.9-1.003-2.618c-.701-.667-1.503-1.026-2.505-1.026zm-1.353 5.031a1.887 1.887 0 01-.552-1.334c0-.514.2-.976.552-1.335.35-.36.802-.565 1.353-.565.5 0 1.002.205 1.353.565a1.89 1.89 0 010 2.669c-.351.36-.802.565-1.353.565a1.913 1.913 0 01-1.353-.565z" fill="#000"/><path d="M.907 3.234c-.651.873-.952 1.797-.902 2.823v11.859c0 .924.351 1.745 1.003 2.464.651.667 1.403 1.027 2.255 1.027h10.674c0-1.284.4-2.362 1.253-3.235.851-.872 1.904-1.283 3.157-1.283 1.252 0 2.305.41 3.157 1.284.852.872 1.253 1.95 1.253 3.234H42V19.66h-5.162c.502 0 .752-.565.752-1.745V6.622c0-.821-.1-1.591-.4-2.259-.301-.667-.602-1.18-.953-1.54-.35-.359-.752-.667-1.203-.975-.45-.308-.801-.462-.952-.513l-.501-.154c-.651-.154-2.756-.411-6.264-.719C23.809.154 20.852 0 18.397 0c-2.556 0-5.513.154-8.82.462-3.257.308-5.262.616-5.963.821C2.46 1.694 1.558 2.361.907 3.234zm24.506 6.93V6.11c0-.514.2-.719.601-.719h5.713c.15 0 .3.051.45.205a.77.77 0 01.201.462v4.21c0 .36-.25.513-.701.513h-5.763c-.401 0-.602-.205-.602-.616h.1zM4.315 6.057c0-.513.25-.718.702-.718h12.728c.401 0 .602.256.602.718v4.21c0 .36-.2.513-.602.513H5.017c-.501 0-.702-.154-.702-.513v-4.21z" fill="#000"/></svg>