<svg width="24" height="24" viewBox="0 0 24 24" fill="none" xmlns="http://www.w3.org/2000/svg"><path d="M22 16.974v3.01a2.004 2.004 0 01-1.367 1.91c-.266.09-.547.123-.826.098a19.927 19.927 0 01-8.678-3.081 19.59 19.59 0 01-6.034-6.022 19.836 19.836 0 01-3.087-8.701 2.003 2.003 0 011.19-2.017c.256-.112.532-.17.811-.17h3.017a2.014 2.014 0 012.011 1.725c.128.964.364 1.91.704 2.82a2.003 2.003 0 01-.452 2.118L8.012 9.939a16.074 16.074 0 006.033 6.021l1.277-1.274a2.012 2.012 0 012.122-.452c.912.34 1.86.575 2.826.703A2.013 2.013 0 0122 16.974z" stroke="#747474" stroke-width="2" stroke-linecap="round" stroke-linejoin="round"/></svg>