<svg width="16" height="16" viewBox="0 0 16 16" fill="none" xmlns="http://www.w3.org/2000/svg"><path d="M15.926 13.497c-.37.394-.78.75-1.222 1.063a7.84 7.84 0 01-4.531 1.438 7.834 7.834 0 01-3.03-.606c-.97-.405-1.843-1-2.573-1.736l-.032-.033v-.001a8.017 8.017 0 01-1.978-3.403H0V9.23h2.343a8.012 8.012 0 01-.065-1.913c.016-.184.038-.368.065-.549H0V5.78h2.56a8.008 8.008 0 011.979-3.402v-.002l.031-.032A7.93 7.93 0 017.143.606a7.86 7.86 0 018.6 1.706l.078.077-.076.077-.536.548-.076.077-.077-.076a7.018 7.018 0 00-1.053-.865 6.851 6.851 0 00-3.83-1.16c-.941 0-1.838.188-2.656.53a6.95 6.95 0 00-2.254 1.522l-.074.075a7.023 7.023 0 00-1.605 2.662h8.468v.99H3.336a7.028 7.028 0 00-.107 1.23 7.185 7.185 0 00.107 1.231h8.716v.99H3.584a7.013 7.013 0 001.603 2.66l.076.076a6.95 6.95 0 002.254 1.523c.818.342 1.715.53 2.656.53a6.828 6.828 0 002.743-.568 6.927 6.927 0 002.301-1.622l.074-.078.079.075.551.526.079.075-.074.08z" fill="#616161"/></svg>