<svg width="20" height="26" viewBox="0 0 20 26" fill="none" xmlns="http://www.w3.org/2000/svg"><g clip-path="url(#clip0)" fill="#616161"><path d="M10 6.14a3.75 3.75 0 00-2.02.587A3.521 3.521 0 006.64 8.29a3.35 3.35 0 00-.207 2.013c.14.676.487 1.297.996 1.784.508.488 1.156.82 1.861.954a3.783 3.783 0 002.102-.198 3.607 3.607 0 001.631-1.284 3.38 3.38 0 00.613-1.936c0-.924-.383-1.81-1.065-2.464A3.718 3.718 0 0010 6.14zm0 5.227c-.36 0-.711-.103-1.01-.294a1.761 1.761 0 01-.67-.782 1.675 1.675 0 01-.103-1.007c.07-.338.243-.648.497-.892a1.85 1.85 0 01.931-.477 1.892 1.892 0 011.05.1 1.8 1.8 0 01.817.641c.2.287.306.624.306.968 0 .462-.191.905-.532 1.232a1.86 1.86 0 01-1.286.51z"/><path d="M10 .042c-2.652 0-5.196 1.01-7.071 2.807S0 7.083 0 9.625c0 8.197 9.09 14.39 9.482 14.652l.518.349.518-.349C10.91 24.016 20 17.822 20 9.625c0-2.542-1.053-4.98-2.929-6.776C15.196 1.052 12.652.042 10 .042zm0 22.432c-1.882-1.411-8.182-6.62-8.182-12.85 0-2.079.862-4.073 2.397-5.543C5.749 2.61 7.83 1.784 10 1.784s4.251.826 5.785 2.297c1.535 1.47 2.397 3.464 2.397 5.544 0 6.228-6.3 11.438-8.182 12.849z"/></g><defs><clipPath id="clip0"><path fill="#fff" transform="translate(0 .042)" d="M0 0h20v25.263H0z"/></clipPath></defs></svg>