<svg width="24" height="26" viewBox="0 0 24 26" fill="none" xmlns="http://www.w3.org/2000/svg"><path d="M4.907 8.272c0 2.566 1.273 4.825 3.194 6.145C3.881 15.471.9 18.21.9 21.548c0 .73.465 1.314 1.19 1.774.727.46 1.731.81 2.855 1.071 2.25.525 5.008.707 7.055.707 2.047 0 4.805-.182 7.055-.707 1.124-.262 2.128-.611 2.854-1.071.726-.46 1.191-1.043 1.191-1.774 0-3.339-2.981-6.077-7.201-7.13 1.92-1.321 3.194-3.58 3.194-6.146C19.093 4.211 15.914.9 12 .9S4.907 4.21 4.907 8.272zm1.641 0C6.548 5.141 8.998 2.6 12 2.6s5.452 2.54 5.452 5.672c0 3.131-2.45 5.671-5.452 5.671s-5.452-2.54-5.452-5.671zM12 23.4c-2.93 0-5.268-.322-6.893-.725-.813-.202-1.445-.424-1.883-.635a2.7 2.7 0 01-.502-.3c-.11-.088-.164-.16-.181-.21.008-1.603 1.05-3.07 2.759-4.143 1.712-1.075 4.082-1.744 6.7-1.744 2.618 0 4.987.67 6.7 1.744 1.709 1.072 2.75 2.54 2.759 4.141-.017.05-.07.123-.18.212a2.68 2.68 0 01-.501.3c-.437.21-1.069.432-1.882.634-1.625.404-3.965.726-6.896.726z" fill="#747474" stroke="#747474" stroke-width=".2"/></svg>