<svg width="26" height="22" viewBox="0 0 26 22" fill="none" xmlns="http://www.w3.org/2000/svg"><path d="M3.4 1h19.2C23.92 1 25 2.125 25 3.5v15c0 1.375-1.08 2.5-2.4 2.5H3.4C2.08 21 1 19.875 1 18.5v-15C1 2.125 2.08 1 3.4 1z" stroke="#616161" stroke-width="2" stroke-linecap="round" stroke-linejoin="round"/><path d="M25 3l-12 8L1 3" stroke="#616161" stroke-width="2" stroke-linecap="round" stroke-linejoin="round"/><path d="M3.4 1h19.2C23.92 1 25 2.125 25 3.5v15c0 1.375-1.08 2.5-2.4 2.5H3.4C2.08 21 1 19.875 1 18.5v-15C1 2.125 2.08 1 3.4 1z" fill="#F5AA01" stroke="#616161" stroke-width="2" stroke-linecap="round" stroke-linejoin="round"/><path d="M25 3l-12 8L1 3" stroke="#616161" stroke-width="2" stroke-linecap="round" stroke-linejoin="round"/></svg>