<svg width="24" height="23" viewBox="0 0 24 23" fill="none" xmlns="http://www.w3.org/2000/svg"><path d="M18.192 22.003H5.827a5.797 5.797 0 01-2.918-.765 5.749 5.749 0 01-2.13-2.123 5.61 5.61 0 010-5.702l6.21-10.55A5.795 5.795 0 019.115.765a5.843 5.843 0 015.788 0 5.795 5.795 0 012.126 2.096l6.192 10.551a5.609 5.609 0 010 5.702 5.748 5.748 0 01-2.122 2.119 5.796 5.796 0 01-2.907.768zM12.009 1.835a3.933 3.933 0 00-1.976.512 3.9 3.9 0 00-1.447 1.431l-6.192 10.56a3.785 3.785 0 000 3.86 3.89 3.89 0 001.446 1.45c.603.346 1.29.526 1.987.52h12.365a3.923 3.923 0 001.992-.518 3.89 3.89 0 001.45-1.453 3.785 3.785 0 000-3.859L15.433 3.78a3.9 3.9 0 00-1.448-1.431 3.933 3.933 0 00-1.976-.512z" fill="#616161"/><path d="M12.01 7.336a.501.501 0 00-.406.202.476.476 0 00-.092.44l.498 1.998.499-1.998a.473.473 0 00-.093-.44.498.498 0 00-.406-.202z" fill="#616161"/><path d="M13.855 6.419a2.36 2.36 0 00-1.845-.882 2.375 2.375 0 00-1.846.882 2.285 2.285 0 00-.424 2.007l1.347 5.546a.916.916 0 00.895.694.926.926 0 00.895-.694l1.394-5.555a2.277 2.277 0 00-.416-1.998zm-1.347 1.558l-.498 1.999-.498-1.999a.474.474 0 01.092-.44.507.507 0 01.633-.148c.07.035.132.086.179.148a.476.476 0 01.092.44zm-.498 10.359a1.38 1.38 0 001.383-1.375c0-.76-.62-1.375-1.384-1.375a1.38 1.38 0 00-1.384 1.375c0 .76.62 1.375 1.384 1.375z" fill="#616161"/><path d="M18.192 22.003H5.827a5.797 5.797 0 01-2.918-.765 5.749 5.749 0 01-2.13-2.123 5.61 5.61 0 010-5.702l6.21-10.55A5.795 5.795 0 019.115.765a5.843 5.843 0 015.788 0 5.795 5.795 0 012.126 2.096l6.192 10.551a5.609 5.609 0 010 5.702 5.748 5.748 0 01-2.122 2.119 5.796 5.796 0 01-2.907.768zM12.009 1.835a3.933 3.933 0 00-1.976.512 3.9 3.9 0 00-1.447 1.431l-6.192 10.56a3.785 3.785 0 000 3.86 3.89 3.89 0 001.446 1.45c.603.346 1.29.526 1.987.52h12.365a3.923 3.923 0 001.992-.518 3.89 3.89 0 001.45-1.453 3.785 3.785 0 000-3.859L15.433 3.78a3.9 3.9 0 00-1.448-1.431 3.933 3.933 0 00-1.976-.512z" fill="#EB840B"/><path d="M12.01 1.836a3.933 3.933 0 00-1.977.512 3.9 3.9 0 00-1.447 1.431l-6.192 10.56a3.785 3.785 0 000 3.86 3.89 3.89 0 001.446 1.45c.603.346 1.29.526 1.987.52h12.365a3.923 3.923 0 001.992-.518 3.89 3.89 0 001.45-1.453 3.785 3.785 0 000-3.859L15.433 3.78a3.9 3.9 0 00-1.448-1.431 3.933 3.933 0 00-1.976-.512z" fill="#EB840B"/><path d="M18.192 22.003H5.827a5.797 5.797 0 01-2.918-.765 5.749 5.749 0 01-2.13-2.123 5.61 5.61 0 010-5.702l6.21-10.55A5.795 5.795 0 019.115.765a5.843 5.843 0 015.788 0 5.795 5.795 0 012.126 2.096l6.192 10.551a5.609 5.609 0 010 5.702 5.748 5.748 0 01-2.122 2.119 5.796 5.796 0 01-2.907.768zM12.009 1.835a3.933 3.933 0 00-1.976.512 3.9 3.9 0 00-1.447 1.431l-6.192 10.56a3.785 3.785 0 000 3.86 3.89 3.89 0 001.446 1.45c.603.346 1.29.526 1.987.52h12.365a3.923 3.923 0 001.992-.518 3.89 3.89 0 001.45-1.453 3.785 3.785 0 000-3.859L15.433 3.78a3.9 3.9 0 00-1.448-1.431 3.933 3.933 0 00-1.976-.512z" fill="#616161"/><path fill-rule="evenodd" clip-rule="evenodd" d="M13.855 6.419a2.36 2.36 0 00-1.846-.882 2.375 2.375 0 00-1.845.882 2.285 2.285 0 00-.425 2.008l1.348 5.545a.916.916 0 00.895.694.926.926 0 00.895-.694l1.393-5.555a2.277 2.277 0 00-.415-1.998z" fill="#616161"/><path d="M12.01 18.336a1.38 1.38 0 001.383-1.375c0-.76-.62-1.375-1.384-1.375a1.38 1.38 0 00-1.384 1.375c0 .76.62 1.375 1.384 1.375z" fill="#616161"/></svg>