<svg width="28" height="28" viewBox="0 0 28 28" fill="none" xmlns="http://www.w3.org/2000/svg"><path d="M0 13.802c0-2.73.821-5.398 2.36-7.668a13.959 13.959 0 016.282-5.083 14.187 14.187 0 018.09-.786A14.063 14.063 0 0123.9 4.042a13.743 13.743 0 013.831 7.067 13.62 13.62 0 01-.797 7.975 13.846 13.846 0 01-5.156 6.194A14.143 14.143 0 0114 27.604a14.102 14.102 0 01-9.9-4.043 13.703 13.703 0 01-4.1-9.76zm26.133 0c0-2.366-.711-4.679-2.044-6.646a12.098 12.098 0 00-5.446-4.405 12.295 12.295 0 00-7.01-.68A12.188 12.188 0 005.42 5.343a11.91 11.91 0 00-3.32 6.124 11.805 11.805 0 00.69 6.911 12 12 0 004.47 5.369A12.258 12.258 0 0014 25.764c3.218 0 6.304-1.26 8.58-3.504a11.877 11.877 0 003.553-8.458z" fill="#222B2A"/><path d="M10.389 19.217L15.597 14l-5.208-5.218a.933.933 0 010-1.316.933.933 0 011.316 0l5.936 5.936a.85.85 0 010 1.195l-5.936 5.936a.933.933 0 01-1.316 0 .933.933 0 010-1.316z" fill="#222B2A"/></svg>