<svg width="16" height="24" viewBox="0 0 16 24" fill="none" xmlns="http://www.w3.org/2000/svg">
<path d="M2 21H14" stroke="#616161"/>
<path d="M0 23H16" stroke="#616161"/>
<path d="M4 19H12" stroke="#616161"/>
<path d="M8 17V3" stroke="#616161"/>
<path fill-rule="evenodd" clip-rule="evenodd" d="M8 4C9.10457 4 10 3.10457 10 2C10 0.895432 9.10457 0 8 0C6.89543 0 6 0.895432 6 2C6 3.10457 6.89543 4 8 4ZM8 3C8.55228 3 9 2.55228 9 2C9 1.44772 8.55228 1 8 1C7.44772 1 7 1.44772 7 2C7 2.55228 7.44772 3 8 3Z" fill="#616161"/>
</svg>
