<svg width="268" height="124" viewBox="0 0 268 124" fill="none" xmlns="http://www.w3.org/2000/svg">
<rect width="268" height="124" fill="#EB840B"/>
<rect x="7.05225" y="28.2232" width="59.0217" height="43.3683" fill="white" stroke="white" stroke-width="2"/>
<rect x="5.87256" y="75.2448" width="61.0217" height="7.16341" fill="white"/>
<rect x="5.87256" y="12.8956" width="61.0217" height="7.16341" fill="white"/>
<rect x="5.87256" y="95.1427" width="28.6536" height="7.16341" fill="white"/>
<rect opacity="0.6" x="5.87256" y="89.5706" width="61.0217" height="3.97967" fill="white"/>
<rect opacity="0.6" x="5.87256" y="83.9996" width="61.0217" height="3.97967" fill="white"/>
<rect x="72.3184" y="28.2229" width="59.0217" height="43.3683" fill="white" stroke="white" stroke-width="2"/>
<rect x="71.1387" y="75.2442" width="61.0217" height="7.16341" fill="white"/>
<rect x="71.1387" y="95.1421" width="28.6536" height="7.16341" fill="white"/>
<rect opacity="0.6" x="71.1387" y="89.5701" width="61.0217" height="3.97967" fill="white"/>
<rect opacity="0.6" x="71.1387" y="84" width="61.0217" height="3.97967" fill="white"/>
<rect x="137.583" y="28.2228" width="59.0217" height="43.3683" fill="white" stroke="white" stroke-width="2"/>
<rect x="136.403" y="75.2441" width="61.0217" height="7.16341" fill="white"/>
<rect x="136.403" y="95.142" width="28.6536" height="7.16341" fill="white"/>
<rect opacity="0.6" x="136.403" y="89.57" width="61.0217" height="3.97967" fill="white"/>
<rect opacity="0.6" x="136.403" y="83.9999" width="61.0217" height="3.97967" fill="white"/>
<rect x="202.851" y="28.2228" width="59.0217" height="43.3683" fill="white" stroke="white" stroke-width="2"/>
<rect x="201.671" y="75.2441" width="61.0217" height="7.16341" fill="white"/>
<rect x="201.671" y="95.142" width="28.6536" height="7.16341" fill="white"/>
<rect opacity="0.6" x="201.671" y="89.57" width="61.0217" height="3.97967" fill="white"/>
<rect opacity="0.6" x="201.671" y="83.9999" width="61.0217" height="3.97967" fill="white"/>
</svg>
