<svg width="20" height="20" viewBox="0 0 20 20" fill="none" xmlns="http://www.w3.org/2000/svg"><path fill-rule="evenodd" clip-rule="evenodd" d="M10.474 16.46a.833.833 0 00-.948 0l-4.93 3.388c-.697.48-1.579-.257-1.267-1.06l2.14-5.515a.897.897 0 00-.32-1.06L.382 8.935C-.32 8.452.011 7.32.856 7.32h5.146c.35 0 .664-.22.794-.554L9.206.554a.845.845 0 011.588 0l2.41 6.213c.13.335.444.554.794.554h5.146c.845 0 1.178 1.131.474 1.615l-4.767 3.276a.897.897 0 00-.32 1.06l2.14 5.515c.312.804-.57 1.54-1.268 1.06l-4.929-3.387z" fill="#F5AA01"/></svg>