<svg width="32" height="24" viewBox="0 0 32 24" fill="none" xmlns="http://www.w3.org/2000/svg"><path d="M1 11.786S6.393 1 15.83 1c9.439 0 14.832 10.786 14.832 10.786S25.269 22.572 15.83 22.572C6.393 22.572 1 11.786 1 11.786z" stroke="#616161" stroke-width="2" stroke-linecap="round" stroke-linejoin="round"/><path d="M15.83 15.83a4.045 4.045 0 100-8.089 4.045 4.045 0 000 8.09z" stroke="#616161" stroke-width="2" stroke-linecap="round" stroke-linejoin="round"/><path d="M1 11.786S6.393 1 15.83 1c9.439 0 14.832 10.786 14.832 10.786S25.269 22.572 15.83 22.572C6.393 22.572 1 11.786 1 11.786z" fill="#F5AA01"/><path d="M15.83 15.83a4.045 4.045 0 100-8.089 4.045 4.045 0 000 8.09z" fill="#F5AA01"/><path d="M1 11.786S6.393 1 15.83 1c9.439 0 14.832 10.786 14.832 10.786S25.269 22.572 15.83 22.572C6.393 22.572 1 11.786 1 11.786z" stroke="#616161" stroke-width="2" stroke-linecap="round" stroke-linejoin="round"/><path d="M15.83 15.83a4.045 4.045 0 100-8.089 4.045 4.045 0 000 8.09z" stroke="#616161" stroke-width="2" stroke-linecap="round" stroke-linejoin="round"/></svg>