<svg width="237" height="138" viewBox="0 0 237 138" fill="none" xmlns="http://www.w3.org/2000/svg"><path fill="#E7E7E7" d="M0 0h237v137.932H0z"/><path fill="#AAA" d="M219.028 88.959h7.638v7.638h-7.638zm0 9.435h7.638v7.638h-7.638zm0 9.436h7.638v7.638h-7.638zM58.408 88.735h64.024v7.863H58.408z"/><path opacity=".6" fill="#AAA" d="M58.407 102.887h15.501v6.29H58.407zm18.646 0h15.501v6.29H77.053zm18.645 0h15.501v6.29H95.698z"/><path fill="#AAA" d="M128.497 88.735h30.102v7.863h-30.102zm33.247 0h24.037v7.863h-24.037zm27.182 0h24.037v7.863h-24.037zM219.029 47.4h7.638v7.638h-7.638zm0 9.435h7.638v7.638h-7.638zm0 9.435h7.638v7.638h-7.638zM10.335 44.929h44.929v36.168H10.335zm48.073 2.246h64.024v7.863H58.408z"/><path opacity=".6" fill="#AAA" d="M58.408 61.328h15.501v6.29H58.408zm18.646 0h15.501v6.29H77.054zm18.645 0H111.2v6.29H95.699z"/><path fill="#AAA" d="M128.498 47.175H158.6v7.863h-30.102zm33.247 0h24.037v7.863h-24.037zm27.182 0h24.037v7.863h-24.037zm30.102-41.334h7.638v7.638h-7.638zm0 9.435h7.638v7.638h-7.638zm0 9.435h7.638v7.638h-7.638zM10.335 3.37h44.929v36.168H10.335zm48.073 2.247h64.024v7.863H58.408z"/><path opacity=".6" fill="#AAA" d="M58.408 19.769h15.501v6.29H58.408zm18.646 0h15.501v6.29H77.054zm18.645 0H111.2v6.29H95.699z"/><path fill="#AAA" d="M128.498 5.617H158.6v7.863h-30.102zm33.247 0h24.037v7.863h-24.037zm27.182 0h24.037v7.863h-24.037z"/><path fill="#EB840B" d="M4.043 44.48h227.34v88.51H4.043z"/><path fill="#fff" stroke="#fff" stroke-width="2" d="M11.435 63.901h49.668v36.414H11.435z"/><path fill="#fff" d="M9.435 103.562h51.668v6.065H9.435zm.001-52.792h51.668v6.065H9.436zm-.001 69.64h24.262v6.065H9.435z"/><path opacity=".6" fill="#fff" d="M9.435 115.693h51.668v3.37H9.435zm0-4.718h51.668v3.37H9.435z"/><path fill="#fff" stroke="#fff" stroke-width="2" d="M66.697 63.901h49.668v36.414H66.697z"/><path fill="#fff" d="M64.697 103.561h51.668v6.065H64.697zm0 16.849h24.262v6.065H64.697z"/><path opacity=".6" fill="#fff" d="M64.697 115.692h51.668v3.37H64.697zm0-4.717h51.668v3.37H64.697z"/><path fill="#fff" stroke="#fff" stroke-width="2" d="M121.96 63.901h49.668v36.414H121.96z"/><path fill="#fff" d="M119.96 103.561h51.668v6.065H119.96zm0 16.849h24.262v6.065H119.96z"/><path opacity=".6" fill="#fff" d="M119.96 115.692h51.668v3.37H119.96zm0-4.717h51.668v3.37H119.96z"/><path fill="#fff" stroke="#fff" stroke-width="2" d="M177.223 63.901h49.668v36.414h-49.668z"/><path fill="#fff" d="M175.223 103.561h51.668v6.065h-51.668zm0 16.849h24.262v6.065h-24.262z"/><path opacity=".6" fill="#fff" d="M175.223 115.692h51.668v3.37h-51.668zm0-4.717h51.668v3.37h-51.668z"/></svg>