<svg width="237" height="126" viewBox="0 0 237 126" fill="none" xmlns="http://www.w3.org/2000/svg"><path fill="#E7E7E7" d="M0 0h236.613v125.82H0z"/><path opacity=".9" fill="#EB840B" d="M5.383 19.063h225.848v59.658H5.383z"/><path fill="#fff" d="M218.672 24.222h7.625v7.625h-7.625zm0 9.42h7.625v7.625h-7.625zm0 9.419h7.625v7.625h-7.625zM10.316 21.755h44.856v36.109H10.316zm0 37.006h21.979V76.03H10.316zm22.877 0h21.979V76.03H33.193zm25.119-34.763h63.919v7.85H58.312z"/><path opacity=".6" fill="#fff" d="M58.312 38.127h15.475v6.28H58.312zm18.615 0h15.475v6.28H76.927zm18.616 0h15.475v6.28H95.543z"/><path fill="#fff" d="M58.312 63.694h15.475v6.28H58.312zm18.615 0h51.36v6.28h-51.36zm54.501 0h28.932v6.28h-28.932zm54.05 0h40.819v9.42h-40.819zm-57.191-39.696h30.053v7.85h-30.053zm33.192 0h23.998v7.85h-23.998zm27.139 0h23.998v7.85h-23.998z"/><path fill="#AAA" d="M218.671 84.777h7.625v7.625h-7.625zm0 9.42h7.625v7.625h-7.625zm0 9.419h7.625v7.625h-7.625zM10.316 82.31h44.856v36.109H10.316zm47.997 2.242h63.919v7.85H58.313z"/><path opacity=".6" fill="#AAA" d="M58.313 98.683h15.475v6.28H58.313zm18.613 0h15.475v6.28H76.926zm18.615 0h15.475v6.28H95.541z"/><path fill="#AAA" d="M128.287 84.552h30.053v7.85h-30.053zm33.192 0h23.998v7.85h-23.998zm27.139 0h23.998v7.85h-23.998zM10.317 8.746h43.061v7.85H10.317zm47.996 0h43.061v7.85H58.313zm48.442 0h21.531v7.85h-21.531z"/><path fill="#C4C4C4" d="M208.579 8.746h7.85v7.85h-7.85zm10.092 0h7.85v7.85h-7.85z"/></svg>