<svg width="237" height="127" viewBox="0 0 237 127" fill="none" xmlns="http://www.w3.org/2000/svg"><path fill="#E7E7E7" d="M0 0h237v126.026H0z"/><path fill="#AAA" d="M219.027 88.959h7.638v7.638h-7.638zm0 9.435h7.638v7.638h-7.638zm0 9.436h7.638v7.638h-7.638zM10.334 86.488h44.929v36.168H10.334zm48.073 2.246h64.024v7.863H58.407z"/><path opacity=".6" fill="#AAA" d="M58.407 102.887h15.501v6.29H58.407zm18.646 0h15.501v6.29H77.053zm18.646 0H111.2v6.29H95.699z"/><path fill="#AAA" d="M128.496 88.734h30.102v7.863h-30.102zm33.247 0h24.037v7.863h-24.037zm27.182 0h24.037v7.863h-24.037zm30.102-41.333h7.638v7.638h-7.638zm0 9.435h7.638v7.638h-7.638zm0 9.434h7.638v7.638h-7.638zM10.334 44.929h44.929v36.168H10.334zm48.073 2.247h64.024v7.863H58.407z"/><path opacity=".6" fill="#AAA" d="M58.407 61.329h15.501v6.29H58.407zm18.646 0h15.501v6.29H77.053zm18.646 0H111.2v6.29H95.699z"/><path fill="#AAA" d="M128.496 47.176h30.102v7.863h-30.102zm33.247 0h24.037v7.863h-24.037zm27.182 0h24.037v7.863h-24.037zm30.102-41.334h7.638v7.638h-7.638zm0 9.435h7.638v7.638h-7.638zm0 9.434h7.638v7.638h-7.638zM10.334 3.37h44.929v36.168H10.334zm48.073 2.247h64.024v7.863H58.407z"/><path opacity=".6" fill="#AAA" d="M58.407 19.77h15.501v6.29H58.407zm18.646 0h15.501v6.29H77.053zm18.646 0H111.2v6.29H95.699z"/><path fill="#AAA" d="M128.496 5.617h30.102v7.863h-30.102zm33.247 0h24.037v7.863h-24.037zm27.182 0h24.037v7.863h-24.037z"/><path stroke="#EB840B" stroke-width="2" d="M5.044 42.559h226.913v40.907H5.044z"/></svg>